<?xml version="1.0" encoding="UTF-8"?>
<svg width="800" height="800" version="1.1" viewBox="0 0 1700.8 800" xml:space="preserve" xmlns="http://www.w3.org/2000/svg">
  
  
  <g transform="matrix(4 0 0 4 0 -450.4)">
    <rect width="425.2" height="425.2" fill="#c1000a"/>
    <g fill="#ffd800">
      <path d="m234.1 60.1c-3.8 0-7 3.1-7 7v165.7c0 3.8 3.1 7 7 7s7-3.1 7-7v-165.7c0-3.8-3.2-7-7-7z"/>
      <path d="m264.7 72.2c-3.8 0-7 3.1-7 7v141.5c0 3.8 3.1 7 7 7s7-3.1 7-7v-141.5c-0.1-3.8-3.2-7-7-7z"/>
      <path d="m295.2 98.9c-3.8 0-7 3.1-7 7v88.1c0 3.8 3.1 7 7 7s7-3.1 7-7v-88.1c0-3.9-3.1-7-7-7z"/>
      <circle cx="326.3" cy="149.8" r="10.9"/>
      <path d="m221.6 41.6c1.3-1.8 2.1-4 2.1-6.4 0-6-4.9-10.9-10.9-10.9s-10.9 4.9-10.9 10.9c0 2.8 1.1 5.4 2.8 7.3-9.4 11.4-21.8 18.3-26.6 20.7-1.7-3.9-5.5-6.6-10.1-6.6-6 0-10.9 4.9-10.9 10.9s4.9 10.9 10.9 10.9c2.5 0 4.7-0.8 6.6-2.2 12.1 18.8 15.5 40.8 16.5 51.8-11-0.9-33.1-4.3-51.7-16.4 1.3-1.8 2.1-4 2.1-6.4 0-6-4.9-10.9-10.9-10.9s-10.9 4.9-10.9 10.9c0 4.5 2.8 8.4 6.7 10.1-2.7 5.5-10.6 19.7-21.5 27.1-2-2.1-4.8-3.5-8-3.5-6 0-10.9 4.9-10.9 10.9s4.9 10.9 10.9 10.9c3.2 0 6-1.3 8-3.5 10.9 7.4 18.8 21.7 21.5 27.2-3.9 1.7-6.7 5.5-6.7 10.1 0 6 4.9 10.9 10.9 10.9s10.9-4.9 10.9-10.9c0-2.4-0.8-4.6-2.1-6.4 18.6-12.1 40.7-15.5 51.7-16.4-0.9 11-4.3 32.9-16.5 51.6-1.8-1.4-4.1-2.2-6.6-2.2-6 0-10.9 4.9-10.9 10.9s4.9 10.9 10.9 10.9c4.5 0 8.4-2.7 10.1-6.6 4.8 2.4 17.1 9.3 26.6 20.7-1.8 1.9-2.9 4.5-2.9 7.3 0 6 4.9 10.9 10.9 10.9s10.9-4.9 10.9-10.9c0-2.4-0.8-4.6-2.1-6.4-9.4-16.1-24.5-26.4-33.3-31.4 16.6-28.4 16.5-60.6 16.5-62v-6.6l-6.6-0.1c-1.5 0-33.6-0.1-62.1 16.5-3.7-6.7-10.2-16.9-19.1-24.6 8.9-7.6 15.4-17.8 19.1-24.5 28.4 16.6 60.6 16.5 62.1 16.5l6.6-0.1v-6.6c0-1.5 0-33.6-16.5-62 9-4.9 24.1-15.2 33.4-31.4z"/>
    </g>
    
      <g fill="#fff">
        <path d="m77.7 368.4c-13.7 0-24.4-10.3-24.4-23.4 0-13.2 10.5-23.2 24.4-23.2 13.7 0 24.4 10.2 24.4 23.2 0 13.2-10.7 23.4-24.4 23.4zm0-40c-9.4 0-17 7.5-17 16.7 0 9.3 7.6 16.8 17 16.8 9.3 0 16.8-7.5 16.8-16.8 0-9.4-7.3-16.7-16.8-16.7z"/>
        <path d="m126 368.3c-10.3 0-17.6-7.3-17.6-17.6 0-10.5 7.2-17.8 17.6-17.8 6.1 0 11 1.9 14.3 5.5l-3.9 4.6c-2.6-2.5-6-3.9-9.8-3.9h-0.3c-6.3 0-10.8 4.8-10.8 11.5 0 6.8 4.4 11.5 10.7 11.5 4.4 0 8-1.4 10.5-4.1l3.9 3.9c-3.2 4.3-8.2 6.4-14.6 6.4z"/>
        <path d="m163.3 368.3c-10.3 0-17.6-7.3-17.6-17.6 0-10.5 7.2-17.8 17.6-17.8 6.1 0 11 1.9 14.3 5.5l-3.9 4.6c-2.6-2.5-6-3.9-9.8-3.9h-0.3c-6.3 0-10.8 4.8-10.8 11.5 0 6.8 4.4 11.5 10.7 11.5 4.4 0 8-1.4 10.5-4.1l3.9 3.9c-3.1 4.3-8.2 6.4-14.6 6.4z"/>
        <path d="m186.5 368.1v-34.9h7.1v34.9h-7.1zm3.6-40.9c-2.4 0-4.2-1.9-4.2-4.3 0-2.5 1.8-4.4 4.2-4.4s4.2 1.9 4.2 4.4c0 2.4-1.8 4.3-4.2 4.3z"/>
        <path d="m217.7 368.4c-2.3 0-9.7-0.7-9.7-10.1v-18.6h-5v-5.2h5v-9.7h7.1v9.7h10.4v5.2h-10.4v17.3c0 3.5 1.2 5 4 5 1.5 0 3.1-0.4 5.2-1.4l1.8 5.4c-2.8 1.6-5.6 2.4-8.4 2.4z"/>
        <path d="m244.2 368.4c-7.2 0-12.2-4.4-12.2-10.7s5-10.3 13.1-10.4h10.9v-1.3c0-4.7-3.1-7.4-8.7-7.4-3.4 0-6.9 1.2-10.4 3.5l-2.9-4.9c4.9-2.9 8.5-4.3 14.9-4.3 8.9 0 14 4.4 14.1 12.2l0.1 23h-7v-4.5l-1.6 1.4c-2.4 2.3-5.9 3.4-10.3 3.4zm2.1-16c-5.2 0-7.6 1.5-7.6 5 0 3.3 2.8 5.5 7.1 5.5 5.5 0 9.9-2.9 10.3-6.9v-3.5h-9.8z"/>
        <path d="m301.3 368.1v-19.6c0-5.4-3.4-8.8-8.8-8.8-5.8 0.1-9.7 3.8-10.3 9.9v18.6h-7.2v-34.9h7.2v6.9l1.7-2.2c2.5-3.3 6.4-5 11.6-5 8 0 12.9 5.1 12.9 13.4v21.8h-7.1z"/>
        <path d="m320.4 368.1v-34.9h7.1v34.9h-7.1zm3.6-40.9c-2.4 0-4.2-1.9-4.2-4.3 0-2.5 1.8-4.4 4.2-4.4s4.2 1.9 4.2 4.4c0 2.4-1.8 4.3-4.2 4.3z"/>
        <path d="m355 368.3c-10.7 0-17.8-7.1-17.8-17.6 0-10.4 7.3-17.7 17.6-17.8 5.3 0 9.4 1.5 12.2 4.5 3.2 3.5 4.6 8.8 4.1 15.9h-26.9l0.4 1.2c1.5 5 5.7 8.1 11 8.1 3.8 0 7.3-1.4 10-4l3.7 4c-3.5 3.8-8.4 5.7-14.3 5.7zm-0.1-29.7c-5.4 0-9.3 3.2-10.5 8.5l-0.2 1.1h20.8l-0.1-1c-0.5-5.4-4.3-8.6-10-8.6z"/>
      </g>
      <g fill="#fff">
        <polygon points="57.9 304.3 68.8 304.3 68.7 308.5 53.3 308.5 53.3 283.1 58 283.2"/>
        <path d="m77.8 308.7c-4 0-6.9-2.5-6.9-6.1 0-3.7 2.8-5.9 7.4-5.9h5.5l0.1-0.4c0-2.4-1.5-3.6-4.3-3.6-1.8 0-3.6 0.6-5.5 1.9l-0.2 0.2-1.8-3.3h0.2c2.8-1.6 4.7-2.4 8.3-2.4 5 0 7.8 2.5 7.9 6.9v12.7l-4.5-0.1 0.1-1.8v-0.2l-0.1 0.1c-1.6 1.3-3.6 2-6.2 2zm1.1-8.6c-2.7 0-3.7 0.7-3.7 2.3s1.3 2.6 3.5 2.6c2.8 0 5-1.4 5.2-3.4v-1.5h-5z"/>
        <path d="m102.8 308.5 0.1-25.5 10.3 0.1c6.5 0 10.3 3.2 10.3 8.7 0 3.9-1.8 6.8-5 8.2l5.6 8.5h-5.3l-4.5-7.5h-1.1-5.7l-0.1 7.6-4.6-0.1zm4.7-11.7 5.7 0.1c3.9 0 5.9-1.6 5.9-4.8 0-3.1-2-4.7-5.9-4.7h-5.7v9.4z"/>
        <path d="m136.6 308.7c-5.9 0-9.9-3.9-9.9-9.8 0-5.8 4-9.8 9.8-9.9 3 0 5.2 0.8 6.8 2.5 1.8 1.9 2.6 4.9 2.3 8.9v0.2l-14.2-0.1c0.6 2.7 2.8 4.4 5.6 4.4 2 0 3.9-0.8 5.2-2.2l0.2-0.2 2.4 2.7-0.2 0.1c-2 2.3-4.7 3.4-8 3.4zm-0.1-16c-2.7 0-4.8 1.7-5.3 4.5l10.3 0.1c-0.2-2.9-2-4.6-5-4.6zm-3-5.9 4.1-5.8 4.7 2.1-4.8 3.7h-4z"/>
        <path d="m157.6 315.6c-2.8 0-5.5-0.9-8-2.5l-0.2-0.1 2-3.3 0.1 0.2c1.9 1.4 3.7 2 5.8 2 3.5 0 5.8-2 5.8-5.2v-1.8l-0.1 0.2c-1.4 1.7-3.4 2.6-6 2.6-5.2 0-8.8-3.8-8.8-9.4 0-5.5 3.5-9.2 8.6-9.2 2.6 0 4.7 0.9 6.1 2.6l0.1 0.2v-2.7l4.5 0.1-0.1 17.3c0.3 5.4-3.7 9-9.8 9zm0.3-22.9c-3.1 0-5.3 2.3-5.3 5.6 0 3.4 2.2 5.7 5.3 5.7s5.3-2.3 5.3-5.7c0-3.3-2.2-5.6-5.3-5.6z"/>
        <path d="m172.9 308.5 0.1-19.5 4.5 0.1-0.1 19.4h-4.5zm2.3-21.9c-1.5 0-2.6-1.1-2.6-2.7 0-1.5 1.1-2.7 2.6-2.7s2.6 1.2 2.6 2.7-1.1 2.7-2.6 2.7z"/>
        <path d="m191.5 308.7c-6 0-10.1-4-10.1-9.8 0-5.9 4.1-9.8 10.1-9.8 5.9 0 10.1 4 10.1 9.8-0.1 5.7-4.2 9.8-10.1 9.8zm0-15.8c-3.3 0-5.6 2.4-5.6 6s2.3 6 5.6 6 5.6-2.5 5.6-6c-0.1-3.5-2.4-6-5.6-6z"/>
        <path d="m205.4 308.5 0.1-19.5 4.6 0.1-0.1 2.9v0.2l0.1-0.2c1.4-2 3.6-3.1 6.7-3.1 4.5 0 7.3 2.9 7.3 7.5v12h-4.6l0.1-10.9c0-2.8-1.6-4.4-4.4-4.4-2.9 0-4.9 2-5.2 5v10.4h-4.6z"/>
      </g>
      
        <g fill="#fff">
          <path d="m61.2 380.7c4.7 0 7.4 2.3 7.4 6.4 0 4.2-2.7 6.6-7.4 6.6h-4.3v5.6h-3.1v-18.6h7.4zm-4.3 10.2h4.1c2.9 0 4.5-1.2 4.5-3.8 0-2.4-1.6-3.6-4.5-3.6h-4.1v7.4z"/>
          <path d="m77.7 401.2c-0.9 2.2-2.5 3.4-4.6 3.4-1.3 0-2.3-0.4-3.3-1.2l1.3-2.4c0.7 0.5 1.2 0.7 1.8 0.7 0.9 0 1.7-0.5 2.2-1.6l0.5-1.1-5.9-13.9h3.3l4.2 10.7 3.9-10.7h3.1l-6.5 16.1z"/>
          <path d="m89.5 388c1-1.9 2.7-2.9 4.9-2.9v2.9c-2.8-0.2-4.7 1.5-4.9 3.9v7.4h-3.1v-14.1h3.1v2.8z"/>
          <path d="m109.4 393.4h-10.7c0.5 2.2 2.2 3.5 4.4 3.5 1.5 0 3-0.6 4-1.6l1.6 1.7c-1.4 1.5-3.4 2.4-5.9 2.4-4.4 0-7.2-2.9-7.2-7.2s3-7.2 7.2-7.2c4.9 0 7 3.3 6.6 8.4zm-2.7-2.3c-0.1-2.3-1.6-3.7-3.9-3.7-2.2 0-3.8 1.4-4.1 3.7h8zm-5.9-8 2.8-3.9 3.1 1.3-3.2 2.6h-2.7z"/>
          <path d="m126.1 390.5v8.8h-3.1v-8c0-2.1-1.3-3.4-3.4-3.4-2.3 0-3.8 1.6-4 3.9v7.5h-3.1v-14.1h3.1v2.7c1-2 2.8-2.8 5.2-2.8 3.3-0.1 5.3 2 5.3 5.4z"/>
          <path d="m142.7 393.4h-10.7c0.5 2.2 2.2 3.5 4.4 3.5 1.5 0 3-0.6 4-1.6l1.6 1.7c-1.4 1.5-3.4 2.4-5.9 2.4-4.4 0-7.2-2.9-7.2-7.2s3-7.2 7.2-7.2c4.9 0 6.9 3.3 6.6 8.4zm-2.7-2.3c-0.1-2.3-1.6-3.7-3.9-3.7-2.2 0-3.8 1.4-4.1 3.7h8zm-5.9-8 2.8-3.9 3.1 1.3-3.2 2.6h-2.7z"/>
          <path d="m158.3 393.4h-10.7c0.5 2.2 2.2 3.5 4.4 3.5 1.5 0 3-0.6 4-1.6l1.6 1.7c-1.4 1.5-3.4 2.4-5.9 2.4-4.4 0-7.2-2.9-7.2-7.2s3-7.2 7.2-7.2c4.9 0 7 3.3 6.6 8.4zm-2.7-2.3c-0.1-2.3-1.6-3.7-3.9-3.7-2.2 0-3.8 1.4-4.1 3.7h8z"/>
          <path d="m170.7 386.4-1.1 2.3c-1.2-0.8-2.8-1.2-4.1-1.2-1.2 0-2.1 0.4-2.1 1.4 0 2.6 7.5 1.2 7.5 6.3 0 2.9-2.6 4.2-5.4 4.2-2.1 0-4.3-0.7-5.7-2l1.1-2.2c1.2 1.1 3.2 1.8 4.7 1.8 1.3 0 2.3-0.5 2.3-1.5 0-2.9-7.4-1.3-7.4-6.4 0-2.9 2.5-4.1 5.2-4.1 1.8 0 3.7 0.5 5 1.4z"/>
          <path d="m180.2 392.2v-2.1h6.5v2.1h-6.5z"/>
          <path d="m214.4 399.3v-13.9l-5.9 12h-2l-5.9-12v13.9h-3v-18.6h3.7l6.1 12.4 6.1-12.4h3.7v18.6h-2.8z"/>
          <path d="m234.5 393.4h-10.7c0.5 2.2 2.2 3.5 4.4 3.5 1.5 0 3-0.6 4-1.6l1.6 1.7c-1.4 1.5-3.4 2.4-5.9 2.4-4.4 0-7.2-2.9-7.2-7.2s3-7.2 7.2-7.2c5 0 7 3.3 6.6 8.4zm-2.6-2.3c-0.1-2.3-1.6-3.7-3.9-3.7-2.2 0-3.8 1.4-4.1 3.7h8zm-5.9-8 2.8-3.9 3.1 1.3-3.2 2.6h-2.7z"/>
          <path d="m251.2 399.3h-3.1v-2.4c-1 1.6-2.7 2.6-5 2.6-4.1 0-6.8-3-6.8-7.3s2.7-7.2 6.7-7.2c2.3 0 4 0.9 5 2.6v-8h3.1v19.7zm-3.1-7c0-2.7-1.8-4.7-4.3-4.7s-4.3 1.9-4.4 4.7c0 2.7 1.8 4.6 4.4 4.6s4.3-2 4.3-4.6z"/>
          <path d="m259.1 381.1c0 1.1-0.8 1.8-1.8 1.8s-1.8-0.8-1.8-1.8c0-1.1 0.8-1.9 1.8-1.9 1.1 0 1.8 0.8 1.8 1.9zm-3.3 18.2v-14.1h3v14.1h-3z"/>
          <path d="m271.4 398.4c-1.1 0.7-2.3 1-3.5 1-2.1 0-4-1.2-4-4.1v-7.3h-2v-2.3h2v-3.9h3v3.9h4.2v2.3h-4.1v6.8c0 1.5 0.6 1.9 1.5 1.9 0.6 0 1.3-0.2 2.1-0.6l0.8 2.3z"/>
          <path d="m286.5 393.4h-10.7c0.5 2.2 2.2 3.5 4.4 3.5 1.5 0 3-0.6 4-1.6l1.6 1.7c-1.4 1.5-3.4 2.4-5.9 2.4-4.4 0-7.2-2.9-7.2-7.2s3-7.2 7.2-7.2c5 0 7 3.3 6.6 8.4zm-2.6-2.3c-0.1-2.3-1.6-3.7-3.9-3.7-2.2 0-3.8 1.4-4.1 3.7h8z"/>
          <path d="m292.8 388c1-1.9 2.7-2.9 4.9-2.9v2.9c-2.8-0.2-4.7 1.5-4.9 3.9v7.4h-3.1v-14.1h3.1v2.8z"/>
          <path d="m303.2 388c1-1.9 2.7-2.9 4.9-2.9v2.9c-2.8-0.2-4.7 1.5-4.9 3.9v7.4h-3.1v-14.1h3.1v2.8z"/>
          <path d="m318.6 397.6c-1 1.2-2.6 1.9-4.7 1.9-3.1 0-5-1.9-5-4.4 0-2.6 1.9-4.2 5.3-4.3h4.3v-0.4c0-1.8-1.1-2.8-3.4-2.8-1.4 0-2.8 0.5-4.2 1.4l-1.2-2.1c2-1.2 3.4-1.8 6.1-1.8 3.6 0 5.7 1.9 5.7 5v9.3h-3v-1.8zm0-3.3v-1.3h-3.8c-2 0-2.9 0.5-2.9 1.9 0 1.3 1 2.1 2.7 2.1 2.1 0 3.8-1.1 4-2.7z"/>
          <path d="m339.2 390.5v8.8h-3.1v-8c0-2.1-1.3-3.4-3.4-3.4-2.3 0-3.8 1.6-4 3.9v7.5h-3.1v-14.1h3.1v2.7c1-2 2.8-2.8 5.2-2.8 3.3-0.1 5.3 2 5.3 5.4z"/>
          <path d="m355.8 393.4h-10.7c0.5 2.2 2.2 3.5 4.4 3.5 1.5 0 3-0.6 4-1.6l1.6 1.7c-1.4 1.5-3.4 2.4-5.9 2.4-4.4 0-7.2-2.9-7.2-7.2s3-7.2 7.2-7.2c4.9 0 6.9 3.3 6.6 8.4zm-2.7-2.3c-0.1-2.3-1.6-3.7-3.9-3.7-2.2 0-3.8 1.4-4.1 3.7h8zm-5.9-8 2.8-3.9 3.1 1.3-3.2 2.6h-2.7z"/>
          <path d="m371.4 393.4h-10.7c0.5 2.2 2.2 3.5 4.4 3.5 1.5 0 3-0.6 4-1.6l1.6 1.7c-1.4 1.5-3.4 2.4-5.9 2.4-4.4 0-7.2-2.9-7.2-7.2s3-7.2 7.2-7.2c4.9 0 7 3.3 6.6 8.4zm-2.7-2.3c-0.1-2.3-1.6-3.7-3.9-3.7-2.2 0-3.8 1.4-4.1 3.7h8z"/>
        </g>
      
    
  </g>
</svg>
