<?xml version="1.0" encoding="UTF-8" standalone="no"?>
<svg version="1.1" width="1062.3533" height="978.64398" viewBox="0 0 1062.3533 978.64398"
   xmlns="http://www.w3.org/2000/svg">
   <g id="group-MC1">
      <path id="path2"
         d="m 0,0 v -15.789 h 8.571 c 5.414,0 8.662,2.887 8.662,8.03 C 17.233,-2.977 13.985,0 8.571,0 Z M -12.812,10.918 H 8.03 c 13.894,0 22.376,-7.128 22.376,-18.857 0,-11.639 -8.482,-18.767 -22.376,-18.767 H 0 V -52.24 h -12.812 v 63.158"
         style="fill:#231f20;fill-opacity:1;fill-rule:nonzero;stroke:none"
         transform="matrix(1.3333333,0,0,-1.3333333,129.08667,293.99067)" />
      <path id="path3"
         d="m 0,0 v -15.789 h 7.218 c 5.414,0 8.572,2.887 8.572,8.03 C 15.79,-2.977 12.632,0 7.218,0 Z M -12.812,10.918 H 6.497 c 13.894,0 22.465,-7.128 22.465,-18.857 0,-7.579 -3.699,-13.263 -10.105,-16.331 l 19.85,-27.97 H 23.369 L 6.586,-26.706 H 0 V -52.24 h -12.812 v 63.158"
         style="fill:#231f20;fill-opacity:1;fill-rule:nonzero;stroke:none"
         transform="matrix(1.3333333,0,0,-1.3333333,200.78667,293.99067)" />
      <path id="path4"
         d="M 0,0 10.196,12.181 H 23.369 L 11.639,0 Z m -12.451,-5.413 h 36.812 v -10.918 h -24 V -30.947 H 20.752 V -41.864 H 0.361 v -15.789 h 24 v -10.918 h -36.812 v 63.158"
         style="fill:#231f20;fill-opacity:1;fill-rule:nonzero;stroke:none"
         transform="matrix(1.3333333,0,0,-1.3333333,279.58533,272.216)" />
      <path id="path5" d="m 0,0 h 36.812 v -10.918 h -24 V -25.534 H 33.203 V -36.451 H 12.812 V -63.158 H 0 V 0"
         style="fill:#231f20;fill-opacity:1;fill-rule:nonzero;stroke:none"
         transform="matrix(1.3333333,0,0,-1.3333333,331.91867,279.43333)" />
      <path id="path6"
         d="m 0,0 h 36.812 v -10.918 h -24 V -25.534 H 33.204 V -36.451 H 12.812 V -52.24 h 24 V -63.158 H 0 V 0"
         style="fill:#231f20;fill-opacity:1;fill-rule:nonzero;stroke:none"
         transform="matrix(1.3333333,0,0,-1.3333333,396.04,279.43333)" />
      <path id="path7" d="M 0,0 H 51.79 V -11.639 H 32.301 V -63.158 H 19.489 v 51.519 L 0,-11.639 V 0"
         style="fill:#231f20;fill-opacity:1;fill-rule:nonzero;stroke:none"
         transform="matrix(1.3333333,0,0,-1.3333333,458.11867,279.43333)" />
      <path id="path8"
         d="m 0,0 v -39.88 h 12.18 c 11.729,0 20.211,8.752 20.211,19.94 C 32.391,-8.662 23.909,0 12.18,0 Z M -12.812,11.639 H 12 c 20.03,0 33.564,-14.526 33.564,-31.579 0,-17.052 -13.534,-31.579 -33.564,-31.579 h -24.812 v 63.158"
         style="fill:#231f20;fill-opacity:1;fill-rule:nonzero;stroke:none"
         transform="matrix(1.3333333,0,0,-1.3333333,129.08667,416.38)" />
      <path id="path9"
         d="m 0,0 h 36.812 v -10.917 h -24 V -25.534 H 33.203 V -36.451 H 12.812 V -52.24 h 24 V -63.158 H 0 V 0"
         style="fill:#231f20;fill-opacity:1;fill-rule:nonzero;stroke:none"
         transform="matrix(1.3333333,0,0,-1.3333333,206.32133,400.86133)" />
      <path id="path10" d="m 0,0 h 12.812 v -51.519 h 24 V -63.158 H 0 V 0"
         style="fill:#231f20;fill-opacity:1;fill-rule:nonzero;stroke:none"
         transform="matrix(1.3333333,0,0,-1.3333333,306.53467,400.86133)" />
      <path id="path11"
         d="M 0,0 -8.661,23.729 -17.323,0 Z M -17.052,35.819 H -0.27 L 23.639,-27.339 H 10.015 l -6.044,16.421 h -25.264 l -6.045,-16.421 h -13.624 l 23.91,63.158"
         style="fill:#231f20;fill-opacity:1;fill-rule:nonzero;stroke:none"
         transform="matrix(1.3333333,0,0,-1.3333333,418.29467,448.62)" />
      <path id="path12"
         d="m 0,0 v -15.79 h 7.218 c 5.414,0 8.572,2.888 8.572,8.03 C 15.79,-2.978 12.632,0 7.218,0 Z M -12.812,10.917 H 6.497 c 13.894,0 22.465,-7.128 22.465,-18.857 0,-7.579 -3.699,-13.263 -10.105,-16.331 l 19.85,-27.97 H 23.369 L 6.587,-26.707 H 0 v -25.534 h -12.812 v 63.158"
         style="fill:#231f20;fill-opacity:1;fill-rule:nonzero;stroke:none"
         transform="matrix(1.3333333,0,0,-1.3333333,511.16933,415.41733)" />
      <path id="path13"
         d="M 0,0 10.196,12.18 H 23.369 L 11.639,0 Z m -12.451,-5.414 h 36.812 v -10.917 h -24 V -30.948 H 20.752 V -41.865 H 0.361 v -15.789 h 24 v -10.918 h -36.812 v 63.158"
         style="fill:#231f20;fill-opacity:1;fill-rule:nonzero;stroke:none"
         transform="matrix(1.3333333,0,0,-1.3333333,589.968,393.64267)" />
      <path id="path14"
         d="M 0,0 V 10.646 H -16.06 V 22.285 H 12.812 V -4.602 c -5.864,-7.85 -15.699,-12.902 -27.518,-12.902 -20.481,0 -34.466,15.338 -34.466,33.383 0,18.045 13.624,33.384 33.563,33.384 11.459,0 20.843,-5.143 26.617,-12.812 L 0.902,28.601 c -3.608,5.143 -9.293,8.662 -16.511,8.662 -11.909,0 -20.39,-9.294 -20.39,-21.384 0,-12.09 8.932,-21.383 21.293,-21.383 5.955,0 11.097,2.075 14.706,5.504"
         style="fill:#231f20;fill-opacity:1;fill-rule:nonzero;stroke:none"
         transform="matrix(1.3333333,0,0,-1.3333333,698.72267,464.13867)" />
      <path id="path15" d="m 551.112,370.179 h 12.812 v 63.158 h -12.812 z"
         style="fill:#231f20;fill-opacity:1;fill-rule:nonzero;stroke:none"
         transform="matrix(1.3333333,0,0,-1.3333333,0,978.644)" />
      <path id="path16"
         d="m 0,0 c 0,12.09 -8.481,21.384 -20.301,21.384 -11.909,0 -20.39,-9.294 -20.39,-21.384 0,-12.09 8.481,-21.383 20.39,-21.383 C -8.481,-21.383 0,-12.09 0,0 Z m 13.173,0 c 0,-18.045 -13.624,-33.383 -33.474,-33.383 -19.939,0 -33.563,15.338 -33.563,33.383 0,18.045 13.624,33.384 33.563,33.384 19.85,0 33.474,-15.339 33.474,-33.384"
         style="fill:#231f20;fill-opacity:1;fill-rule:nonzero;stroke:none"
         transform="matrix(1.3333333,0,0,-1.3333333,840.08,442.96667)" />
      <path id="path17"
         d="M 0,0 H 16.421 L 44.662,-45.203 V 0 H 57.473 V -63.158 H 41.053 L 12.812,-17.774 V -63.158 H 0 V 0"
         style="fill:#231f20;fill-opacity:1;fill-rule:nonzero;stroke:none"
         transform="matrix(1.3333333,0,0,-1.3333333,874.008,400.86133)" />
      <path id="path18"
         d="m 0,0 c 0,12.091 -8.481,21.385 -20.301,21.385 -11.91,0 -20.391,-9.294 -20.391,-21.385 0,-12.09 8.481,-21.383 20.391,-21.383 C -8.481,-21.383 0,-12.09 0,0 Z m 13.173,0 c 0,-18.045 -13.624,-33.383 -33.474,-33.383 -19.94,0 -33.563,15.338 -33.563,33.383 0,18.046 13.623,33.385 33.563,33.385 19.85,0 33.474,-15.339 33.474,-33.385"
         style="fill:#231f20;fill-opacity:1;fill-rule:nonzero;stroke:none"
         transform="matrix(1.3333333,0,0,-1.3333333,176.60533,564.396)" />
      <path id="path19"
         d="m 0,0 10.106,-7.759 c -5.775,-7.85 -15.159,-12.903 -26.617,-12.903 -19.939,0 -33.563,15.338 -33.563,33.383 0,18.046 13.624,33.385 33.563,33.385 11.458,0 20.842,-5.144 26.617,-12.813 L 0,25.444 c -3.609,5.142 -9.293,8.662 -16.511,8.662 -11.91,0 -20.391,-9.294 -20.391,-21.385 0,-12.09 8.481,-21.383 20.391,-21.383 7.218,0 12.902,3.52 16.511,8.662"
         style="fill:#231f20;fill-opacity:1;fill-rule:nonzero;stroke:none"
         transform="matrix(1.3333333,0,0,-1.3333333,272.24533,581.35733)" />
      <path id="path20"
         d="m 0,0 10.106,-7.759 c -5.775,-7.85 -15.159,-12.903 -26.617,-12.903 -19.939,0 -33.563,15.338 -33.563,33.383 0,18.046 13.624,33.385 33.563,33.385 11.458,0 20.842,-5.144 26.617,-12.813 L 0,25.444 c -3.609,5.142 -9.293,8.662 -16.511,8.662 -11.91,0 -20.391,-9.294 -20.391,-21.385 0,-12.09 8.481,-21.383 20.391,-21.383 7.218,0 12.902,3.52 16.511,8.662"
         style="fill:#231f20;fill-opacity:1;fill-rule:nonzero;stroke:none"
         transform="matrix(1.3333333,0,0,-1.3333333,359.46667,581.35733)" />
      <path id="path21" d="m 290.805,279.108 h 12.812 v 63.158 h -12.812 z"
         style="fill:#231f20;fill-opacity:1;fill-rule:nonzero;stroke:none"
         transform="matrix(1.3333333,0,0,-1.3333333,0,978.644)" />
      <path id="path22" d="M 0,0 H 51.79 V -11.639 H 32.301 V -63.158 H 19.489 v 51.519 L 0,-11.639 V 0"
         style="fill:#231f20;fill-opacity:1;fill-rule:nonzero;stroke:none"
         transform="matrix(1.3333333,0,0,-1.3333333,419.74,522.28933)" />
      <path id="path23"
         d="M 0,0 -8.661,23.729 -17.323,0 Z M -17.052,35.82 H -0.27 L 23.639,-27.338 H 10.015 L 3.97,-10.917 h -25.263 l -6.045,-16.421 h -13.624 l 23.91,63.158"
         style="fill:#231f20;fill-opacity:1;fill-rule:nonzero;stroke:none"
         transform="matrix(1.3333333,0,0,-1.3333333,539.804,570.04933)" />
      <path id="path24"
         d="M 0,0 H 16.421 L 44.662,-45.203 V 0 H 57.474 V -63.158 H 41.053 L 12.812,-17.775 V -63.158 H 0 V 0"
         style="fill:#231f20;fill-opacity:1;fill-rule:nonzero;stroke:none"
         transform="matrix(1.3333333,0,0,-1.3333333,584.31733,522.28933)" />
      <path id="path25" d="m 513.398,279.108 h 12.812 v 63.158 h -12.812 z"
         style="fill:#231f20;fill-opacity:1;fill-rule:nonzero;stroke:none"
         transform="matrix(1.3333333,0,0,-1.3333333,0,978.644)" />
      <path id="path26"
         d="m 0,0 h 36.812 v -10.918 h -24 V -25.534 H 33.203 V -36.451 H 12.812 V -52.24 h 24 V -63.158 H 0 V 0"
         style="fill:#231f20;fill-opacity:1;fill-rule:nonzero;stroke:none"
         transform="matrix(1.3333333,0,0,-1.3333333,725.192,522.28933)" />
      <path id="path27"
         d="m 0,0 0.463,1.435 c -6.159,1.158 -6.946,1.158 -4.492,7.872 l 2.501,6.9 h 6.807 c 3.056,0 3.102,-1.25 2.639,-4.584 h 1.76 l 4.075,11.159 h -1.76 C 10.465,20.143 9.261,18.198 5.927,18.198 h -6.715 l 3.566,9.771 c 1.112,3.102 1.76,3.751 5.928,3.751 h 2.963 c 4.307,0 4.816,-1.158 4.816,-5.511 h 1.713 l 1.436,7.595 H -5.928 l -0.463,-1.436 c 4.955,-1.019 5.418,-1.481 3.103,-7.872 L -8.845,9.307 C -11.16,2.963 -12.133,2.454 -17.828,1.435 L -18.245,0 Z m 35.47,18.615 c 0.88,3.01 0.417,5.649 -1.898,5.649 -2.733,0 -3.427,-2.083 -6.205,-8.057 v 3.427 c 0,2.454 -0.788,4.63 -3.01,4.63 -2.594,0 -4.955,-4.029 -6.761,-8.011 H 18.8 c 1.25,1.806 2.408,2.871 3.334,2.871 1.111,0 1.713,-1.713 0,-5.51 L 17.133,2.5 c -0.926,-2.084 0.046,-3.427 2.083,-3.427 1.251,0 1.807,0.324 2.316,1.667 l 4.909,13.013 c 1.389,1.713 2.639,3.195 4.213,4.862 z m 22.505,6.714 -1.945,0.14 -2.176,-2.131 H 53.391 C 42.833,23.338 33.71,11.483 33.71,2.87 c 0,-2.407 1.482,-3.797 3.797,-3.797 2.732,0 5.418,3.89 8.428,8.058 L 45.796,5.649 c -0.37,-4.26 0.926,-6.576 3.149,-6.576 2.593,0 4.955,4.029 6.761,8.012 h -1.204 c -1.25,-1.807 -2.408,-2.871 -3.334,-2.871 -0.973,0 -1.667,1.759 0,5.509 z M 38.48,6.297 c 0,5.696 6.344,13.429 9.909,13.429 0.787,0 1.529,-0.092 2.177,-0.278 L 46.861,9.585 c -2.13,-2.593 -5.418,-5.742 -6.946,-5.742 -0.88,0 -1.435,0.741 -1.435,2.454 m 23.384,14.402 h 4.26 L 59.363,2.223 c -0.602,-1.576 0.232,-3.15 1.853,-3.15 3.843,0 10.048,3.797 12.225,8.983 H 72.237 C 70.524,6.251 67.236,3.843 64.411,3.334 l 6.205,17.365 h 6.344 l 0.787,2.639 h -6.159 l 2.362,6.669 h -2.454 l -4.399,-6.669 -5.233,-0.74 z M 92.103,8.011 H 90.528 C 88.537,5.649 86.407,3.797 84.276,3.797 c -2.176,0 -3.287,1.297 -3.287,4.214 0,1.204 0.139,2.408 0.37,3.519 l 12.827,4.214 c 2.501,5.927 -0.509,8.52 -4.028,8.52 -6.067,0 -12.967,-10.141 -12.967,-19.032 0,-3.982 1.899,-6.159 4.863,-6.159 3.473,0 7.085,3.381 10.049,8.938 m -4.4,12.827 c 1.714,0 3.196,-1.297 2.408,-4.585 l -7.964,-1.852 c 1.389,3.704 3.704,6.437 5.556,6.437 m 28.433,-2.223 c 0.88,3.01 0.417,5.649 -1.899,5.649 -2.732,0 -3.426,-2.083 -6.205,-8.057 v 3.427 c 0,2.454 -0.787,4.63 -3.01,4.63 -2.593,0 -4.955,-4.029 -6.761,-8.011 h 1.204 c 1.25,1.806 2.408,2.871 3.334,2.871 1.112,0 1.714,-1.713 0,-5.51 L 97.798,2.5 c -0.926,-2.084 0.047,-3.427 2.084,-3.427 1.25,0 1.806,0.324 2.315,1.667 l 4.909,13.013 c 1.389,1.713 2.64,3.195 4.214,4.862 z M 116.228,2.5 c -0.926,-2.084 0.046,-3.427 2.084,-3.427 1.25,0 1.806,0.324 2.315,1.667 l 4.909,13.013 c 2.269,2.778 6.946,5.742 8.798,5.742 1.343,0 1.158,-1.111 0.278,-2.778 L 127.064,2.223 c -0.741,-1.436 0.231,-3.15 1.852,-3.15 3.705,0 8.104,3.334 9.863,8.012 h -1.204 c -1.204,-1.714 -3.241,-3.612 -5.14,-3.937 l 6.483,13.105 c 0.834,1.667 1.251,3.242 1.251,4.492 0,2.13 -1.205,3.519 -3.427,3.519 -3.196,0 -6.437,-3.612 -10.28,-8.057 v 3.427 c 0,2.454 -0.788,4.63 -3.01,4.63 -1.389,0 -2.732,-1.204 -3.983,-2.917 v -0.463 c 2.409,0.138 3.473,-3.473 1.76,-7.27 z m 40.795,28.34 c 1.668,0 3.057,1.342 3.057,3.056 0,1.667 -1.389,3.056 -3.057,3.056 -1.713,0 -3.056,-1.389 -3.056,-3.056 0,-1.714 1.343,-3.056 3.056,-3.056 m -1.296,-9.262 c 0.509,1.714 -0.648,2.686 -1.528,2.686 -3.705,0 -8.104,-3.333 -9.863,-8.011 h 1.204 c 1.204,1.714 3.241,3.612 5.14,3.936 l -7.085,-18.43 c -0.649,-1.713 0.648,-2.686 1.528,-2.686 3.519,0 7.64,3.381 9.4,8.012 h -1.204 c -1.204,-1.714 -3.241,-3.612 -5.14,-3.937 z m 5.742,-0.879 h 4.26 L 158.968,2.223 c -0.602,-1.576 0.232,-3.15 1.852,-3.15 3.844,0 10.049,3.797 12.225,8.983 h -1.204 C 170.128,6.251 166.84,3.843 164.016,3.334 l 6.205,17.365 h 6.344 l 0.787,2.639 h -6.159 l 2.362,6.669 h -2.454 l -4.4,-6.669 -5.232,-0.74 z m 27.691,5.927 9.03,8.428 v 0.972 h -4.863 l -5.556,-9.4 z m 2.547,-18.615 h -1.575 c -1.991,-2.362 -4.121,-4.214 -6.252,-4.214 -2.176,0 -3.287,1.297 -3.287,4.214 0,1.204 0.139,2.408 0.37,3.519 l 12.827,4.214 c 2.501,5.927 -0.509,8.52 -4.028,8.52 -6.067,0 -12.967,-10.141 -12.967,-19.032 0,-3.982 1.899,-6.159 4.863,-6.159 3.473,0 7.085,3.381 10.049,8.938 m -4.4,12.827 c 1.714,0 3.196,-1.297 2.408,-4.585 l -7.964,-1.852 c 1.389,3.704 3.704,6.437 5.556,6.437"
         style="fill:#231f20;fill-opacity:1;fill-rule:nonzero;stroke:none"
         transform="matrix(1.3333333,0,0,-1.3333333,136.28133,866.936)" />
      <path id="path28"
         d="M 0,0 9.029,6.205 V 7.178 H 3.565 L -1.436,0 Z m -3.705,-19.402 c 3.056,0 3.102,-1.25 2.64,-4.584 h 1.759 l 4.075,11.159 h -1.76 c -1.528,-2.639 -2.732,-4.584 -6.066,-4.584 h -6.714 l 3.38,9.307 c 1.112,3.103 1.76,3.706 5.928,3.706 H 2.5 c 4.307,0 4.816,-1.159 4.816,-5.465 h 1.713 l 1.436,7.594 h -25.562 l -0.463,-1.435 c 4.955,-1.019 5.418,-1.483 3.103,-7.872 l -5.557,-15.189 c -2.315,-6.344 -3.288,-6.853 -8.983,-7.873 l -0.417,-1.435 H 1.018 l 5.094,8.057 H 4.167 c -3.241,-3.055 -7.316,-5.973 -13.012,-5.973 -7.548,0 -6.854,0.324 -4.353,7.224 l 2.686,7.363 z m 32.369,-19.82 c 0,2.964 -2.64,4.029 -6.947,5.325 -3.704,1.112 -5.371,1.436 -5.371,2.64 0,0.973 0.787,2.13 2.362,2.964 6.066,0.324 10.002,5.788 10.002,10.372 0,0.973 -0.186,1.807 -0.51,2.547 h 5.14 l 0.788,2.64 h -8.15 c -0.973,0.602 -2.13,0.926 -3.288,0.926 -6.437,0 -10.605,-5.649 -10.605,-10.234 0,-3.473 2.223,-5.649 4.909,-6.158 -3.01,-1.344 -4.677,-2.918 -4.677,-4.771 0,-1.064 0.371,-1.805 1.25,-2.5 -6.945,-2.038 -9.678,-4.352 -9.678,-7.64 0,-3.196 4.214,-4.539 9.216,-4.539 8.474,0 15.559,4.584 15.559,8.428 m -10.049,12.689 c -1.528,0 -2.13,1.296 -2.13,2.778 0,4.121 2.223,10.188 5.696,10.188 1.528,0 2.13,-1.297 2.13,-2.779 0,-4.122 -2.223,-10.187 -5.696,-10.187 M 9.029,-41.491 c 0,2.455 2.362,3.982 5.743,5.326 1.111,-0.556 2.778,-1.158 5,-1.899 3.52,-1.158 4.863,-1.621 4.863,-2.686 0,-2.269 -3.843,-3.983 -9.076,-3.983 -4.399,0 -6.53,0.927 -6.53,3.242 m 47.14,30.748 -1.945,0.139 -2.176,-2.13 h -0.463 c -10.558,0 -19.681,-11.855 -19.681,-20.468 0,-2.407 1.482,-3.797 3.798,-3.797 2.732,0 5.418,3.89 8.427,8.058 l -0.138,-1.483 c -0.371,-4.26 0.926,-6.575 3.148,-6.575 2.593,0 4.955,4.028 6.761,8.011 h -1.204 c -1.25,-1.806 -2.408,-2.87 -3.334,-2.87 -0.972,0 -1.667,1.758 0,5.509 z M 36.674,-29.775 c 0,5.696 6.344,13.429 9.91,13.429 0.787,0 1.528,-0.093 2.176,-0.278 l -3.704,-9.863 c -2.131,-2.593 -5.418,-5.743 -6.947,-5.743 -0.879,0 -1.435,0.742 -1.435,2.455 M 61.216,-32.924 74.136,0.927 73.719,1.436 65.615,0.51 v -0.973 l 1.575,-1.204 c 1.436,-1.111 0.972,-2.176 -0.324,-5.603 L 56.771,-33.85 c -0.741,-1.435 0.231,-3.149 1.852,-3.149 3.705,0 7.641,3.334 9.4,8.011 h -1.204 c -1.204,-1.713 -3.704,-3.612 -5.603,-3.936 m 24.636,27.692 c 1.667,0 3.056,1.342 3.056,3.056 0,1.667 -1.389,3.056 -3.056,3.056 -1.714,0 -3.057,-1.389 -3.057,-3.056 0,-1.714 1.343,-3.056 3.057,-3.056 m -1.297,-9.262 c 0.509,1.714 -0.648,2.686 -1.528,2.686 -3.705,0 -8.104,-3.334 -9.864,-8.011 h 1.204 c 1.204,1.713 3.242,3.612 5.14,3.936 l -7.085,-18.431 c -0.648,-1.712 0.649,-2.685 1.529,-2.685 3.519,0 7.64,3.381 9.4,8.011 h -1.204 c -1.204,-1.713 -3.242,-3.612 -5.14,-3.936 z m 5.741,-0.88 h 4.261 L 87.796,-33.85 c -0.602,-1.575 0.231,-3.149 1.852,-3.149 3.844,0 10.049,3.797 12.225,8.983 h -1.204 c -1.713,-1.805 -5.001,-4.214 -7.826,-4.722 l 6.205,17.364 h 6.345 l 0.787,2.64 h -6.159 l 2.361,6.668 h -2.454 l -4.399,-6.668 -5.233,-0.741 z m 27.691,5.928 9.03,8.427 v 0.973 h -4.862 l -5.557,-9.4 z m 2.547,-18.616 h -1.574 c -1.991,-2.362 -4.122,-4.213 -6.251,-4.213 -2.177,0 -3.289,1.295 -3.289,4.213 0,1.205 0.14,2.409 0.371,3.52 l 12.827,4.214 c 2.501,5.927 -0.51,8.52 -4.029,8.52 -6.066,0 -12.965,-10.141 -12.965,-19.032 0,-3.982 1.898,-6.159 4.861,-6.159 3.474,0 7.085,3.381 10.049,8.937 m -4.399,12.828 c 1.713,0 3.195,-1.297 2.408,-4.585 l -7.965,-1.852 c 1.389,3.704 3.705,6.437 5.557,6.437"
         style="fill:#231f20;fill-opacity:1;fill-rule:nonzero;stroke:none"
         transform="matrix(1.3333333,0,0,-1.3333333,148.50667,741.66133)" />
      <path id="path29"
         d="m 0,0 h -16.856 l -0.463,-1.435 c 4.955,-1.019 5.418,-1.483 3.102,-7.872 l -5.464,-15.19 c -2.315,-6.344 -3.288,-6.853 -8.984,-7.872 l -0.416,-1.435 h 25.654 l 5.557,9.91 H 0.185 c -3.149,-3.474 -6.853,-7.827 -12.549,-7.827 -4.307,0 -4.816,0.742 -2.501,7.224 l 5.464,15.19 c 2.269,6.343 3.288,6.853 8.984,7.872 z m 18.661,-2.964 c 1.667,0 3.056,1.343 3.056,3.057 0,1.667 -1.389,3.056 -3.056,3.056 -1.714,0 -3.056,-1.389 -3.056,-3.056 0,-1.714 1.342,-3.057 3.056,-3.057 m -1.297,-9.261 c 0.51,1.713 -0.648,2.686 -1.528,2.686 -3.705,0 -8.104,-3.335 -9.863,-8.012 h 1.204 c 1.203,1.714 3.241,3.613 5.139,3.937 L 5.231,-32.045 c -0.647,-1.713 0.649,-2.685 1.529,-2.685 3.519,0 7.64,3.38 9.4,8.01 h -1.204 c -1.204,-1.712 -3.241,-3.611 -5.14,-3.935 z m 25.191,-2.454 c 0,3.75 -1.39,5.14 -3.983,5.14 -3.241,0 -6.298,-3.427 -9.354,-7.595 L 36.951,3.195 36.535,3.704 28.431,2.778 V 1.806 l 1.574,-1.204 c 1.436,-1.112 0.973,-2.269 -0.324,-5.603 l -8.335,-21.487 c -0.602,-1.574 -1.343,-3.427 -1.343,-3.936 0,-2.222 3.01,-4.306 5.742,-4.306 6.298,0 16.81,11.344 16.81,20.051 m -14.587,-16.3 c -1.251,0 -3.056,1.157 -3.056,2.176 0,0.324 0.555,1.759 1.25,3.566 l 2.084,5.51 c 2.222,2.639 5.603,5.465 7.502,5.465 1.157,0 2.037,-0.742 2.037,-2.455 0,-5.047 -4.723,-14.262 -9.817,-14.262 m 31.442,5.186 h -1.575 c -1.991,-2.362 -4.121,-4.214 -6.251,-4.214 -2.177,0 -3.288,1.296 -3.288,4.214 0,1.204 0.139,2.407 0.371,3.519 l 12.827,4.215 c 2.5,5.926 -0.51,8.52 -4.029,8.52 -6.067,0 -12.966,-10.141 -12.966,-19.032 0,-3.983 1.898,-6.159 4.862,-6.159 3.473,0 7.085,3.38 10.049,8.937 m -4.4,12.827 c 1.714,0 3.196,-1.296 2.408,-4.585 l -7.964,-1.852 c 1.389,3.705 3.704,6.437 5.556,6.437 m 28.433,-2.223 c 0.88,3.01 0.417,5.65 -1.899,5.65 -2.732,0 -3.426,-2.084 -6.205,-8.057 v 3.426 c 0,2.454 -0.787,4.631 -3.01,4.631 -2.593,0 -4.954,-4.029 -6.761,-8.012 h 1.204 c 1.251,1.806 2.408,2.872 3.334,2.872 1.112,0 1.714,-1.713 0,-5.511 l -5.001,-11.114 c -0.926,-2.083 0.047,-3.426 2.084,-3.426 1.25,0 1.806,0.324 2.315,1.667 l 4.909,13.012 c 1.389,1.713 2.64,3.195 4.214,4.862 z m 3.333,2.084 h 3.381 l -6.761,-18.477 c -0.602,-1.574 0.231,-3.148 1.853,-3.148 3.843,0 10.048,3.797 12.224,8.983 H 96.27 c -1.714,-1.806 -5.002,-4.214 -7.827,-4.724 l 6.205,17.366 h 6.345 l 0.787,2.639 h -6.159 l 2.362,6.668 h -2.455 l -4.399,-6.668 -4.353,-0.741 z m 26.534,5.927 9.03,8.428 v 0.973 h -4.862 l -5.558,-9.401 z m 2.546,-18.615 h -1.574 c -1.991,-2.362 -4.121,-4.214 -6.251,-4.214 -2.176,0 -3.288,1.296 -3.288,4.214 0,1.204 0.139,2.407 0.37,3.519 l 12.827,4.215 c 2.501,5.926 -0.509,8.52 -4.028,8.52 -6.066,0 -12.966,-10.141 -12.966,-19.032 0,-3.983 1.898,-6.159 4.862,-6.159 3.473,0 7.085,3.38 10.048,8.937 m -4.398,12.827 c 1.713,0 3.195,-1.296 2.407,-4.585 l -7.964,-1.852 c 1.389,3.705 3.704,6.437 5.557,6.437"
         style="fill:#231f20;fill-opacity:1;fill-rule:nonzero;stroke:none"
         transform="matrix(1.3333333,0,0,-1.3333333,150.72933,667.508)" />
      <path id="path30"
         d="m 0,0 c -0.158,0.159 0.476,0 0.634,0.317 -0.475,0 -0.792,0 -1.267,0 -0.159,0 -0.159,0.159 -0.159,0.318 C -1.585,0.476 -2.535,0.159 -3.328,0 c -1.109,-0.316 -2.06,-1.109 -3.328,-1.426 -1.743,-0.634 -3.169,-2.06 -5.071,-2.694 -0.158,0 -0.158,0.158 -0.158,0.317 0.158,0.476 0.792,0.634 1.109,1.11 0,0.158 0,0.316 -0.159,0.316 1.268,1.744 3.012,2.694 4.596,4.121 0,0.158 0,0.317 0,0.475 0.476,0.634 1.268,0.951 1.585,1.744 0.159,0.475 0.792,1.109 1.585,1.426 -0.159,0.158 -0.476,0.158 -0.476,0.475 -0.633,0 -1.267,-0.317 -1.902,0.159 0.296,0.295 0.636,0.458 0.995,0.563 -0.138,0.028 -0.26,0.095 -0.36,0.229 -0.159,0.317 0.306,0.671 0.792,0.792 0.634,0.159 1.426,0.159 1.902,0.635 -1.11,0.158 -2.377,-0.318 -3.487,0.316 0.793,2.061 2.06,3.804 3.962,4.754 0.158,0 0.476,0 0.476,-0.158 0,-0.792 -0.476,-1.426 -1.268,-1.585 C -1.267,11.252 0,11.252 1.268,10.619 1.11,10.302 0.792,10.46 0.634,10.46 1.427,9.985 2.378,10.302 3.17,9.667 2.694,9.192 2.219,9.667 1.744,9.667 6.657,8.242 11.886,7.132 16.006,3.963 12.52,2.219 8.875,1.427 5.072,0.635 c -0.476,0 -0.793,0 -1.268,0.158 0,-0.158 0,-0.476 -0.159,-0.476 C 3.012,0.317 2.536,0.317 2.061,0 1.427,-0.316 0.476,-0.475 0,0 Z m -3.245,-11.024 c -0.013,-0.009 -0.026,-0.018 -0.039,-0.027 -0.594,-0.418 -1.185,-0.844 -1.81,-1.207 -0.678,-0.393 -1.387,-0.692 -2.091,-1.026 -0.005,0.013 -0.011,0.026 -0.02,0.038 -0.053,0.074 -0.164,0.12 -0.267,0.064 -0.6,-0.324 -1.111,-0.753 -1.596,-1.215 -0.074,-0.07 -0.147,-0.141 -0.22,-0.213 -0.004,-0.004 -0.009,-0.008 -0.013,-0.012 -0.004,-0.004 -0.008,-0.008 -0.012,-0.012 -0.076,-0.075 -0.151,-0.149 -0.225,-0.225 -0.01,-0.008 -0.018,-0.017 -0.027,-0.026 -0.005,-0.005 -0.005,-0.01 -0.01,-0.015 -0.112,-0.112 -0.222,-0.225 -0.345,-0.37 -0.079,-0.094 -0.106,-0.152 -0.211,-0.222 -0.099,-0.065 -0.371,-0.064 -0.346,0.119 10e-4,0.01 10e-4,0.02 0.002,0.031 -0.094,-0.05 -0.187,-0.099 -0.281,-0.144 -0.087,-0.042 -0.167,-0.089 -0.248,-0.136 -0.034,0.013 -0.071,0.018 -0.109,0.016 -0.04,-0.003 -0.081,-0.012 -0.114,-0.039 -0.194,-0.152 -0.386,-0.313 -0.573,-0.482 -0.331,-0.3 -0.643,-0.627 -0.919,-0.978 -0.006,-0.004 -0.01,-0.009 -0.015,-0.014 -0.01,-0.015 -0.021,-0.03 -0.031,-0.044 -0.015,-0.021 -0.032,-0.041 -0.047,-0.062 -0.017,-0.022 -0.034,-0.043 -0.05,-0.065 -0.005,-0.007 -0.011,-0.013 -0.016,-0.02 -0.038,-0.051 -0.071,-0.105 -0.108,-0.157 -0.002,-0.003 -0.004,-0.007 -0.006,-0.01 -0.027,-0.029 -0.072,-0.05 -0.13,-0.062 -0.021,0.032 -0.043,0.062 -0.063,0.095 -0.016,0.024 -0.03,0.05 -0.045,0.076 -0.047,0.082 -0.092,0.167 -0.135,0.254 -10e-4,0.003 -0.003,0.006 -0.004,0.009 -0.013,0.026 -0.026,0.053 -0.038,0.079 0.172,0.185 0.338,0.375 0.498,0.57 0.01,0.013 0.021,0.026 0.031,0.039 0.056,0.067 0.111,0.135 0.165,0.204 0.09,0.112 0.178,0.225 0.266,0.338 0.032,0.042 0.065,0.084 0.097,0.126 0.174,0.227 0.34,0.448 0.495,0.669 0.004,0.006 0.008,0.012 0.012,0.017 0.023,0.034 0.046,0.067 0.068,0.1 0.076,0.112 0.149,0.226 0.217,0.341 0.062,0.103 0.12,0.208 0.174,0.316 0.004,0.008 0.008,0.015 0.012,0.023 0.006,0.011 0.012,0.022 0.017,0.033 0.01,0.019 0.017,0.04 0.026,0.059 0.056,0.12 0.106,0.243 0.151,0.37 0.005,0.013 0.009,0.027 0.014,0.041 0.012,0.034 0.024,0.068 0.035,0.104 0.018,0.057 0.034,0.115 0.05,0.174 v 0.001 c 0.003,0.013 0.006,0.026 0.009,0.038 0.019,0.077 0.04,0.153 0.055,0.233 0.008,0.042 -0.003,0.076 -0.019,0.107 0.17,0.297 0.384,0.583 0.628,0.855 -0.023,-0.014 -0.05,-0.027 -0.073,-0.041 -0.226,-0.146 -0.377,-0.35 -0.588,-0.508 -0.173,-0.129 -0.491,0.084 -0.286,0.237 0.139,0.104 0.245,0.218 0.36,0.327 0.007,0.009 0.009,0.017 0.017,0.025 0.261,0.258 0.511,0.588 0.808,0.805 0.182,0.133 0.341,0.244 0.488,0.372 0.024,0.02 0.047,0.042 0.069,0.063 0.11,0.146 0.23,0.277 0.355,0.4 0.006,0.005 0.01,0.011 0.017,0.016 1.516,1.463 4.07,1.399 6.07,2.332 0.792,0.317 1.743,-0.159 2.536,0 0.475,0 0.95,0 1.425,-0.317 -1.423,-0.777 -2.739,-1.652 -4.037,-2.467 z m 2.84,-1.309 c -0.072,-0.174 -0.233,-0.324 -0.391,-0.463 0.198,-0.04 0.337,-0.127 0.209,-0.245 -0.367,-0.337 -0.718,-0.675 -1.201,-0.838 -0.033,-0.011 -0.13,-0.026 -0.243,-0.033 -0.194,-0.188 -0.39,-0.375 -0.592,-0.554 -0.188,-0.166 -1.059,-0.046 -0.793,0.19 0.403,0.356 0.775,0.744 1.172,1.106 0.224,0.205 0.461,0.401 0.659,0.631 0.11,0.128 0.201,0.253 0.34,0.351 0.13,0.092 0.968,0.166 0.84,-0.145 z m -7.36,23.744 C -7.923,11.094 -8.099,11.06 -8.24,10.777 -8.399,10.46 -8.557,10.302 -8.874,10.143 c -0.159,0 -0.318,0 -0.318,0.159 0.159,0.633 0.635,1.267 1.269,1.426 0.158,0 0.158,-0.159 0.158,-0.317 z M -20.919,0.952 c 0,0 -0.158,0.158 -0.158,0.316 2.06,2.695 3.645,5.23 5.071,8.082 2.061,1.11 3.77,2.725 5.389,4.438 2.694,2.853 5.546,5.388 8.874,6.973 1.268,0.475 2.853,0.317 4.121,-0.159 -0.476,-0.633 -1.268,-0.475 -1.902,-0.95 -0.159,0 -0.317,0 -0.476,0.158 0.159,0.159 0.159,0.317 0.159,0.476 -1.585,-1.744 -3.804,-2.536 -5.071,-4.596 -0.951,-1.585 -1.585,-3.645 -3.645,-4.121 -0.635,-0.158 0.158,0.476 -0.159,0.317 C -13.629,8.875 -17.115,5.23 -20.919,0.952 Z M 3.328,-2.535 c -0.316,0 -0.95,-0.158 -0.792,0.158 0.158,0.793 1.268,0.793 1.901,1.11 0.318,0.158 0.793,0.475 1.11,0.317 0.317,-0.476 0.792,-0.317 1.11,-0.634 C 5.705,-2.535 4.437,-2.06 3.328,-2.535 Z m 24.371,-11.353 c 0.9,0.901 1.809,1.867 2.712,2.837 h -0.02 c 1.685,1.905 3.334,3.722 5.286,5.395 0.595,0.531 1.172,0.999 1.724,1.378 0.158,0.158 0.158,0.475 0.317,0.634 -0.792,-0.318 -1.268,-0.951 -2.06,-1.268 -0.159,0 -0.317,0.158 -0.159,0.317 0.565,0.423 1.129,0.846 1.693,1.27 -0.034,-0.002 -0.072,-0.002 -0.108,-0.002 -0.158,0 -0.158,0.158 -0.158,0.317 -2.061,0.317 -3.645,-1.11 -5.072,-2.378 -0.317,-0.158 -0.634,0.159 -0.792,0.159 -2.377,-0.793 -4.121,-2.853 -6.498,-3.804 0,0.159 0,0.159 0,0.318 -0.951,-0.318 -1.874,-0.893 -2.852,-1.11 -1.427,-0.317 -2.695,-0.159 -3.963,-0.159 -1.92,-0.191 -3.841,-0.615 -5.762,-1.025 -0.055,-0.015 -0.111,-0.027 -0.166,-0.042 -1.03,-0.282 -2.002,-0.666 -2.953,-1.189 -0.037,-0.02 -0.072,-0.041 -0.107,-0.063 -0.08,-0.099 -0.157,-0.194 -0.23,-0.274 -0.341,-0.375 -0.635,-0.718 -1.087,-0.949 -0.974,-0.495 -1.769,-1.358 -2.628,-2.059 -0.062,-0.05 -0.156,-0.075 -0.254,-0.08 -0.85,-0.816 -1.689,-1.643 -2.552,-2.444 -0.061,-0.056 -0.307,-0.087 -0.484,-0.058 0.004,0.006 0.01,0.009 0.013,0.015 0.031,0.05 0.061,0.101 0.092,0.151 0.133,0.224 0.269,0.447 0.406,0.668 0.153,0.248 0.31,0.494 0.47,0.737 0.216,0.327 0.438,0.651 0.674,0.965 0.062,0.081 0.045,0.154 -0.005,0.208 -0.051,0.052 -0.134,0.083 -0.219,0.082 0.79,0.767 1.73,1.421 2.66,1.985 0,0.01 -0.001,0.018 -0.001,0.027 -0.105,-0.036 -0.259,0.048 -0.179,0.16 0.1,0.14 0.179,0.289 0.273,0.432 0.018,0.047 0.034,0.094 0.051,0.141 -0.04,0.042 -0.08,0.083 -0.12,0.125 -0.255,-0.167 -0.528,-0.325 -0.745,-0.52 -0.379,-0.342 -0.676,-1.041 -1.251,-1.034 -0.038,0 -0.15,0.006 -0.24,0.034 -0.069,0.012 -0.129,0.031 -0.167,0.056 0.007,0.013 0.014,0.025 0.021,0.037 0.007,0.015 0.016,0.029 0.024,0.044 0.007,0.014 0.015,0.027 0.023,0.041 0.024,0.045 0.049,0.091 0.075,0.136 0.025,0.046 0.05,0.091 0.075,0.137 0.021,0.036 0.04,0.073 0.061,0.11 0.038,0.067 0.074,0.134 0.112,0.201 0.028,0.048 0.056,0.095 0.084,0.143 0.067,0.117 0.135,0.233 0.204,0.35 0.033,0.056 0.065,0.112 0.098,0.168 0.057,0.096 0.111,0.193 0.168,0.288 0.079,0.132 -0.003,0.24 -0.119,0.283 0.294,0.381 0.653,0.7 1.085,0.946 H 5.102 c 0.606,0.305 1.213,0.677 1.82,1.018 0.087,0.075 0.174,0.152 0.262,0.226 -0.905,-0.303 -1.717,-0.715 -2.521,-1.244 0,0 -0.209,-0.085 -0.268,-0.144 0,0 -0.182,-0.069 -0.395,0.144 -0.022,0.029 -0.038,0.065 -0.038,0.117 0.159,0.317 0.634,0.475 0.951,0.792 0.159,0 0.317,0 0.317,-0.158 5.071,3.962 12.044,3.01 17.908,5.071 0.475,0.317 0.951,0.634 1.426,0.951 0.792,0.316 1.426,1.109 2.377,1.585 1.268,0.95 2.219,2.06 2.694,3.645 0,0.158 -0.158,0.316 -0.158,0.316 -2.06,-2.218 -4.438,-3.961 -6.973,-5.23 -3.328,-1.743 -6.973,-1.426 -10.46,-1.901 0.159,0.317 0.476,0.317 0.793,0.317 0,0.476 0.317,0.634 0.634,0.951 0.158,0 0.316,0 0.475,0 0.159,0 0.159,0.317 0.317,0.317 0.317,0 0.793,0.158 0.634,0.158 -0.475,0.634 -1.426,-0.475 -2.218,0 0.316,0.317 0.158,0.793 0.475,0.951 0.158,0 0.475,0 0.633,0 0,0.317 0.318,0.634 0.318,0.634 2.377,1.426 4.596,2.535 6.814,3.803 -0.475,0 -0.792,-0.475 -1.268,-0.158 0.318,0 0,0.475 0.318,0.475 1.743,0.476 3.169,1.427 4.912,2.06 -0.634,0 -1.109,-0.475 -1.743,0 0.317,0.159 0.475,0.476 0.951,0.476 0,0.159 0,0.317 0,0.475 0,0.159 0.158,0.159 0.317,0.159 -0.159,0 -0.317,0.158 -0.317,0.158 0.158,0.317 0.634,0.159 0.95,0.476 -0.158,0 -0.475,0 -0.475,0.158 0.475,0.634 1.268,0.793 2.06,0.951 -0.158,0.317 -0.634,0 -0.634,0.317 0,0.159 0.159,0.159 0.317,0.159 -0.158,0 -0.158,0 -0.317,0 -0.316,0.158 -0.158,0.475 -0.158,0.633 0.951,1.11 0.951,2.536 1.426,3.804 -0.159,0 -0.317,0 -0.317,0.158 -1.585,-1.743 -4.12,-2.377 -6.497,-3.011 -0.159,0 -0.634,0 -0.793,0 -0.792,-0.316 -1.902,-0.316 -2.694,0.159 -0.633,0.317 -0.951,0.792 -1.585,1.268 -1.267,0.792 -2.535,1.426 -3.962,1.901 -3.961,1.268 -8.082,1.902 -12.202,1.744 1.743,0.95 3.666,1.031 5.547,1.584 2.694,0.793 5.229,1.743 8.082,1.585 -0.475,0.158 -1.109,0 -1.585,0 -2.218,0.158 -4.437,-0.475 -6.815,-0.951 -1.584,-0.317 -3.01,-0.951 -4.595,-1.268 -0.951,-0.316 -1.427,-1.268 -2.536,-1.109 0,0 0,0.317 0,0.476 1.585,1.901 3.486,3.803 6.022,3.962 2.853,0.475 5.547,0 8.4,-0.317 2.059,-0.159 3.961,-0.635 6.021,-1.11 0.793,0 0.952,-1.268 1.586,-1.426 0.95,-0.317 1.901,0 2.852,-0.634 0,0.317 -0.158,0.634 0,0.951 0.634,0.634 1.426,-0.159 2.06,0.158 1.268,0.793 -1.109,2.219 -1.743,3.328 0,0.158 0.158,0.317 0.158,0.317 1.268,-1.109 2.219,-2.377 3.804,-3.169 0.792,-0.317 2.694,-0.793 2.377,0.158 -0.792,1.744 -2.377,3.17 -3.645,4.754 0,0.159 0,0.476 0,0.635 -0.317,0 -0.317,0.158 -0.475,0.316 0,0.159 0,0.476 0,0.634 -0.634,0.317 -0.476,0.951 -0.793,1.427 -0.475,0.792 -0.158,1.901 -0.475,2.852 -0.317,0.951 -0.476,1.743 -0.634,2.694 -0.475,2.694 -1.109,5.071 -1.427,7.607 -0.316,3.011 1.744,5.388 3.17,8.082 1.11,1.902 2.377,3.804 4.437,5.072 0.476,1.901 1.744,3.486 3.012,5.071 1.265,1.546 3.368,2.489 4.892,3.169 2.213,0.989 4.211,1.608 4.212,1.608 H -67.645 V -23.778 H 9.377 c 3.017,2.172 6.031,3.204 10.242,5.279 1.988,0.98 6.538,3.07 8.08,4.611"
         style="fill:#283a7f;fill-opacity:1;fill-rule:nonzero;stroke:none"
         transform="matrix(1.3333333,0,0,-1.3333333,201.90533,191.82667)" />
      <path id="path31"
         d="m 0,0 h -90.214 c 0.001,0 0.17,-0.028 0.857,-0.396 0.732,-0.393 1.68,-0.9 2.276,-1.212 1.162,-0.608 2.293,-1.37 3.022,-2.535 0.317,-0.476 0.792,-1.427 0.475,-2.061 -0.317,-0.792 -0.475,-2.06 -1.268,-2.377 -0.95,-0.476 -2.219,-0.476 -3.328,-0.317 -0.634,0 -1.268,0.159 -1.901,0.317 2.377,-0.951 4.595,-2.06 6.18,-4.279 0.159,-0.317 0.792,-0.475 1.426,-0.475 0.159,0 0.159,-0.317 0.159,-0.475 -0.317,-0.318 -0.634,-0.476 -0.476,-0.951 0.159,0 0.317,0 0.476,0 0.792,0.317 0.634,1.901 1.743,1.426 0.793,-0.475 1.109,-1.585 0.634,-2.377 -0.634,-0.634 -1.268,-1.109 -1.902,-1.585 -0.158,-0.317 -0.158,-0.792 0,-1.109 0.476,-0.634 0.634,-1.268 0.792,-1.902 0.476,-1.109 0.635,-2.377 1.11,-3.486 0.634,-2.378 1.268,-4.755 1.109,-7.132 0,-1.268 -0.634,-2.377 -0.158,-3.645 0.317,-1.268 1.109,-2.219 1.743,-3.328 0.634,-0.951 1.268,-1.585 1.743,-2.535 0.951,-1.585 2.694,-3.17 1.902,-5.072 -0.475,-1.109 -2.219,-0.95 -3.328,-1.585 -0.951,-0.792 -0.159,-2.06 0.317,-2.852 0.792,-1.426 -0.951,-2.377 -2.06,-2.853 0.316,-0.475 0.951,-0.316 1.109,-0.633 0.158,-0.793 0.951,-1.268 0.475,-2.061 -0.633,-0.951 -2.535,-1.426 -1.584,-2.852 0.634,-1.109 0.223,-2.342 -0.159,-3.487 -0.475,-1.426 -1.743,-2.06 -2.852,-2.377 -0.951,-0.317 -2.06,-0.317 -3.012,-0.158 -0.316,0.158 -0.633,0.316 -0.95,0.316 -2.695,0.318 -5.388,1.11 -8.083,1.11 -0.792,-0.158 -1.584,-0.317 -2.218,-0.634 -0.716,-0.525 -1.354,-1.096 -1.919,-1.696 -0.006,-0.007 -0.012,-0.014 -0.019,-0.021 -0.118,-0.126 -0.233,-0.255 -0.345,-0.384 -0.069,-0.08 -0.137,-0.161 -0.204,-0.243 -0.045,-0.054 -0.091,-0.109 -0.135,-0.164 -0.463,-0.579 -0.878,-1.19 -1.248,-1.826 -0.023,-0.04 -0.047,-0.081 -0.07,-0.121 -0.041,-0.073 -0.082,-0.148 -0.122,-0.222 -0.521,-0.963 -0.914,-1.946 -1.2,-2.907 -1.077,-3.63 -0.606,-6.743 0.15,-7.499 0.21,-0.21 5.231,-1.761 8.728,-3.316 1.64,-0.73 2.788,-1.292 3.74,-1.893 H 0 V 0"
         style="fill:#ed1c24;fill-opacity:1;fill-rule:nonzero;stroke:none"
         transform="matrix(1.3333333,0,0,-1.3333333,419.21333,111.712)" />
      <path id="path32"
         d="m 0,0 c 0.634,-0.159 1.585,-0.159 1.585,-0.476 -0.317,-1.267 -2.22,-1.584 -3.17,-2.853 h -0.476 c -0.475,-0.316 -0.316,-1.109 -0.792,-1.109 -0.476,0.159 -0.952,0 -1.426,-0.158 0.634,-0.634 1.426,-1.11 2.377,-0.951 0.159,0 0.475,-0.318 0.475,-0.635 0,0 0.159,0 0.317,0.16 0.159,0 0.318,0 0.318,-0.16 v -0.633 c -0.476,-0.634 -1.269,-0.317 -1.903,-0.476 1.268,-0.317 2.536,-0.317 3.645,0 0.952,0.317 0,1.902 0.635,2.695 -0.317,0 0,0.475 -0.317,0.475 0.317,0.317 0.634,0.792 0.95,0.951 0.318,0 0.793,0.158 0.951,0.476 0,0.316 -0.633,0.475 -0.475,0.792 0.951,0.634 1.743,1.585 1.427,2.536 -0.159,0.475 -1.427,0.475 -2.219,0.792 -0.793,0.317 -1.744,0 -2.694,-0.158 -0.793,0 -1.585,-0.476 -2.378,-0.634 -1.109,-0.317 -2.06,-0.951 -3.011,-1.585 1.11,0.475 2.219,0.634 3.486,0.951 0.952,0 1.759,0.234 2.695,0"
         style="fill:#918f90;fill-opacity:1;fill-rule:nonzero;stroke:none"
         transform="matrix(1.3333333,0,0,-1.3333333,306.08267,152.504)" />
   </g>
</svg>