<?xml version="1.0" encoding="UTF-8"?>
<svg id="Portrait" xmlns="http://www.w3.org/2000/svg" viewBox="0 0 238.11 238.11">
  <defs>
    <style>
      .cls-1 {
        fill: #00a2e2;
      }

      .cls-2 {
        fill: #fff;
      }

      .cls-3 {
        fill: #bf086e;
      }

      .cls-4 {
        fill: #ec6500;
      }

      .cls-5 {
        fill: #64b32b;
      }

      .cls-6 {
        fill: none;
      }

      .cls-7 {
        fill: #ffed00;
      }

      .cls-8 {
        fill: #0057a5;
      }
    </style>
  </defs>
  <polygon class="cls-3" points="0 238.64 238.04 238.08 237.94 0 0 0 0 238.64"/>
  <path class="cls-2" d="m222.89,196.58s-106.59,28.65-207.71,15.68V14.62h207.71v181.96Z"/>
  <g>
    <g>
      <g>
        <polygon class="cls-8" points="64.04 149.67 57.99 149.67 59.77 137.02 49.17 137.02 44.17 172.62 54.77 172.62 56.55 159.97 62.59 159.97 60.82 172.62 71.42 172.62 76.42 137.02 65.82 137.02 64.04 149.67"/>
        <path class="cls-8" d="m152.88,166.18c-.47.08-1,.13-1.57.18-.57.04-1.21.07-1.92.07-2.03,0-3.05-.84-3.05-2.52,0-.24.02-.48.07-.73l2.2-15.79h-6.46l-2.21,15.79c-.1.74-.15,1.45-.15,2.11,0,4.88,2.91,7.33,8.73,7.33,4.72,0,8.1-.53,10.13-1.58l3.32-23.65h-6.46l-2.63,18.79Z"/>
        <polygon class="cls-8" points="162.87 172.62 169.33 172.62 173.96 139.73 167.28 141.25 162.87 172.62"/>
        <path class="cls-8" d="m113.56,147.39c-4.66,0-8.03.47-10.11,1.43l-3.34,23.8h6.46l2.65-18.79c.46-.07.97-.13,1.55-.18.57-.05,1.21-.07,1.93-.07.62,0,1.45.14,2.49.42l.9-6.4c-.95-.14-1.79-.22-2.52-.22Z"/>
        <path class="cls-8" d="m127.78,147.39c-2.03,0-4.28.38-6.74,1.13l-.88,6.26c2.61-.8,4.86-1.2,6.75-1.2,2.11,0,3.16.64,3.16,1.92,0,.12,0,.24-.02.36-8.91,0-13.76,2.86-14.56,8.6-.07.56-.11,1.1-.11,1.62,0,4.37,2.96,6.55,8.86,6.55,4.72,0,8.1-.53,10.13-1.58l2-14.21c.1-.74.16-1.43.16-2.07,0-4.91-2.92-7.37-8.75-7.37Zm.82,18.79c-.48.08-1,.13-1.57.18-.57.04-1.21.07-1.93.07-2.12,0-3.19-.57-3.19-1.69,0-.09,0-.19.02-.29.22-1.61,2.63-2.41,7.24-2.41l-.58,4.14Z"/>
        <path class="cls-8" d="m92.23,147.6l1.29-2.29h-7.22l-.84,2.67c-4.43,1.34-7.07,4.99-7.91,10.97l-.29,2.12c-.15,1.08-.22,2.09-.22,3.03,0,5.68,2.83,8.53,8.51,8.53,3.18,0,5.82-.39,7.93-1.17l.88-6.29c-2.46.85-5.11,1.27-7.95,1.27-2.03,0-3.05-.86-3.05-2.58,0-.24.02-.49.07-.76h12.14c1.41,0,2.31-1.38,2.69-4.14.15-1.07.22-2.07.22-2.98,0-4.83-2.09-7.61-6.24-8.36Zm-.17,9.52h-7.79c.33-2.36,1.86-3.54,4.61-3.54,2.17,0,3.25.92,3.25,2.76,0,.24-.02.5-.07.78Z"/>
      </g>
      <path class="cls-8" d="m186.25,153.58h6.68l.87-6.19h-6.68l1.07-7.66-6.66,1.52-.87,6.14h-3.34l-.87,6.19h3.34l-1.36,9.6c-.12.82-.18,1.58-.18,2.29,0,4.76,2.55,7.15,7.66,7.15,1.33,0,2.62-.26,3.86-.76l.9-6.41c-1.74.65-3.04.98-3.9.98-1.31,0-1.96-.76-1.96-2.29,0-.3.02-.61.07-.96l1.36-9.6Z"/>
    </g>
    <g>
      <g>
        <path class="cls-1" d="m44.17,176.44h4.89c3.92,0,5.88,2.34,5.88,7.01s-1.96,7-5.88,7h-4.89v-14.01Zm2.87,2.75v8.52h2.03c2.01,0,3.01-1.42,3.01-4.26s-1-4.26-3.01-4.26h-2.03Z"/>
        <path class="cls-1" d="m73.86,179.94c.84-.46,2.3-.69,4.4-.69,2.93,0,4.4,1.55,4.4,4.66v1.88c0,3.11-1.47,4.66-4.4,4.66-.68,0-1.2-.05-1.53-.14v3.85l-2.87.67v-14.89Zm5.93,3.96c0-1.27-.51-1.91-1.53-1.91-.32,0-.6,0-.85.03-.25.02-.48.05-.68.08v5.48c.2.03.43.06.68.08.25.02.53.03.85.03,1.02,0,1.53-.64,1.53-1.92v-1.88Z"/>
        <path class="cls-1" d="m101.48,179.88c.86-.42,2.33-.63,4.4-.63.48,0,1.07.07,1.78.21l-.64,2.73c-.48-.12-.86-.19-1.14-.19-.32,0-.6,0-.85.03-.25.02-.48.05-.68.08v8.34h-2.87v-10.56Z"/>
        <path class="cls-1" d="m138.91,179.88c.86-.42,2.33-.63,4.4-.63,1.07,0,1.85.19,2.33.57.62-.38,1.65-.57,3.1-.57,2.6,0,3.9,1.4,3.9,4.19v7h-2.87v-7c0-.96-.35-1.44-1.04-1.44-.61,0-1.12.1-1.53.31v8.14h-2.87v-7c0-.96-.35-1.44-1.04-1.44-.32,0-.6,0-.85.03-.25.02-.48.05-.68.08v8.34h-2.87v-10.56Z"/>
        <path class="cls-1" d="m171.57,179.88c.86-.42,2.33-.63,4.4-.63,2.93,0,4.4,1.4,4.4,4.19v7h-2.87v-7c0-.96-.51-1.44-1.53-1.44-.32,0-.6,0-.85.03-.25.02-.48.05-.68.08v8.34h-2.87v-10.56Z"/>
      </g>
      <path class="cls-1" d="m69.15,184.38c0-2.96-1.13-4.64-3.38-5.04l.43-1.02h-3.21l-.21,1.19c-1.88.6-2.83,2.21-2.83,4.87v.94c0,3.42,1.47,5.13,4.4,5.13,1.21,0,2.22-.13,3.04-.38l.41-2.93c-1.04.37-2.19.56-3.45.56-1.02,0-1.53-.49-1.53-1.48h5.39c.63,0,.94-.61.94-1.84Zm-6.32-.81c0-1.05.61-1.57,1.83-1.57,1.09,0,1.63.52,1.63,1.57h-3.46Z"/>
      <path class="cls-1" d="m92.07,179.25c-.78,0-1.63.13-2.52.38l-.4,2.9c1.11-.35,2.09-.53,2.93-.53,1.02,0,1.53.34,1.53,1.01-3.95,0-5.93,1.27-5.93,3.81s1.47,3.63,4.4,3.63c2.1,0,3.56-.23,4.4-.7v-6.3c0-2.79-1.47-4.19-4.4-4.19Zm1.53,8.34c-.2.03-.43.06-.68.08-.25.02-.53.03-.85.03-1.02,0-1.53-.29-1.53-.88,0-.71,1.02-1.07,3.06-1.07v1.84Z"/>
      <path class="cls-1" d="m118.05,187.7c-.69,0-1.04-.48-1.04-1.44v-4.26h2.96v-2.75h-2.96v-3.4l-2.87.67v2.73h-1.48v2.75h1.48v4.26c0,2.79,1.3,4.19,3.9,4.19.44,0,.85-.06,1.25-.18l.42-3c-.73.29-1.29.43-1.67.43Z"/>
      <path class="cls-1" d="m134.2,184.38c0-3.42-1.5-5.13-4.5-5.13s-4.69,1.71-4.69,5.13v.94c0,3.42,1.47,5.13,4.4,5.13,1.21,0,2.22-.13,3.04-.38l.41-2.93c-1.04.37-2.19.56-3.45.56-1.02,0-1.53-.49-1.53-1.48h5.39c.63,0,.94-.61.94-1.84Zm-6.33-.81c0-1.05.61-1.57,1.83-1.57,1.09,0,1.63.52,1.63,1.57h-3.46Z"/>
      <path class="cls-1" d="m166.85,184.38c0-3.42-1.5-5.13-4.5-5.13s-4.69,1.71-4.69,5.13v.94c0,3.42,1.47,5.13,4.4,5.13,1.21,0,2.22-.13,3.04-.38l.41-2.93c-1.04.37-2.19.56-3.45.56-1.02,0-1.53-.49-1.53-1.48h5.39c.63,0,.94-.61.94-1.84Zm-6.32-.81c0-1.05.61-1.57,1.83-1.57,1.09,0,1.63.52,1.63,1.57h-3.46Z"/>
      <path class="cls-1" d="m190.76,187.7c-.69,0-1.04-.48-1.04-1.44v-4.26h2.97v-2.75h-2.97v-3.4l-2.87.67v2.73h-1.48v2.75h1.48v4.26c0,2.79,1.3,4.19,3.9,4.19.44,0,.85-.06,1.25-.18l.42-3c-.73.29-1.29.43-1.67.43Z"/>
    </g>
    <g>
      <polygon class="cls-7" points="190.74 62.47 190.8 62.14 190.8 61.76 190.58 60.28 189.81 59.4 189.59 59.07 188.99 57.26 188.88 56.87 187.95 56.27 186.96 56.71 186.19 56.65 185.97 56.32 185.26 55.28 184.88 55.17 184.55 54.95 184.11 53.42 183.45 52.98 181.97 53.36 181.75 53.03 181.25 52.43 180.54 52.21 180.54 51.72 180.65 50.84 180.32 50.56 178.68 49.14 178.46 48.81 175.99 47.44 175.44 47.82 173.96 48.7 173.57 48.92 172.59 48.53 172.26 48.37 172.42 47.05 173.52 45.74 173.47 44.47 173.96 43.82 172.04 43.65 171.98 42.83 172.09 42.5 170.61 42.5 170.23 42.5 169.84 42.39 168.86 41.84 168.36 40.69 168.42 39.37 168.53 38.99 167.98 38.33 166.72 39.43 163.32 39.7 162.11 40.69 160.9 40.74 160.57 41.02 160.35 40.69 159.8 40.08 158.32 39.54 157.78 38 159.64 35.37 159.91 34.6 160.3 33.88 159.8 31.91 159.53 31.58 157.33 31.64 156.57 30.21 156.57 29 156.57 28.62 151.52 28.18 150.31 29.38 148.72 29.71 147.41 30.59 147.85 32.02 147.57 32.07 147.3 31.91 146.69 32.95 146.91 33.72 146.42 35.31 145.87 35.7 145.43 35.59 143.9 35.42 143.95 36.68 143.29 37.12 143.24 35.15 141.98 34.93 141.76 35.25 140.06 37.62 139.95 38.38 138.36 39.81 138.03 40.63 137.81 41.45 139.89 42.88 139.89 43.27 138.3 43.7 138.03 44.04 137.64 43.87 136.49 42.61 135.34 43.05 133.36 42.17 132.87 41.4 133.03 38.82 132.76 38.49 131.55 37.56 130.57 38.22 130.18 38.16 129.3 38.27 127.44 40.63 126.18 40.96 125.13 41.73 124.75 41.51 123.93 40.58 124.75 40.41 125.3 38.77 125.13 37.07 124.09 35.75 122.12 35.31 121.46 35.81 120.25 35.64 119.26 35.09 118.33 35.75 118.22 35.37 117.95 35.59 116.74 36.68 116.8 37.89 114.66 38.27 112.57 37.78 111.75 38 110.98 37.62 110.71 37.4 109.66 38.33 109.61 38.71 109.06 39.87 107.91 40.3 107.2 41.84 107.36 43.05 108.57 44.25 108.46 45.9 108.07 46.01 107.3 46.17 106.92 46.34 106.1 47.38 104.56 47.99 102.48 48.04 100.01 47.49 99.73 47.76 99.63 47.93 97.49 47.44 96.22 46.29 93.81 45.19 92.49 45.3 92.06 45.24 91.4 46.17 91.4 47.38 91.84 48.04 90.63 49.03 90.46 49.41 91.34 51.33 91.23 51.77 91.4 52.15 92.71 53.64 92 55.12 91.18 55.23 91.07 55.61 90.9 56.49 91.23 57.26 90.9 58.03 91.28 58.85 91.07 60.05 92.33 61.15 91.73 61.7 91.67 62.52 91.56 62.91 90.46 62.41 88.93 62.96 88.16 62.69 87.78 62.52 87.33 61.81 85.74 61.21 84.48 61.04 83.77 61.43 83.39 61.54 82.29 62.08 82.07 62.47 80.92 63.02 80.26 62.69 78.89 63.68 78.78 66.75 77.85 67.63 77.41 67.63 75.71 67.3 74.33 68.83 72.14 68.83 70.66 69.77 69.45 69.49 68.52 70.42 68.25 70.75 67.7 71.36 66.49 71.19 64.41 72.51 64.02 72.62 63.31 72.18 62.82 70.97 61.17 69.11 57.99 68.07 57.77 67.68 56.18 68.23 54.97 68.12 54.59 66.97 54.2 66.8 52.61 72.95 51.52 74.26 51.9 74.87 52.12 75.25 52.56 75.2 52.89 76.4 51.68 78.22 51.57 78.6 52.89 80.74 56.67 84.74 56.89 85.07 56.5 85.02 55.35 84.63 55.46 86.33 54.97 87.43 55.24 89.08 55.9 90.12 56.18 90.45 55.74 91.16 53.76 90.83 54.04 91.55 54.04 91.93 53.71 92.26 51.57 94.34 50.8 94.13 50.53 94.4 50.58 95.17 50.2 95.22 49.81 95.06 48.11 96.21 46.91 96.27 47.23 96.48 48.5 97.53 49.37 97.64 49.26 98.46 48.77 99.12 47.56 99.17 47.18 99.07 46.91 99.39 46.08 100.32 45.64 102.03 45.92 103.23 45.04 104.72 44.49 105.86 45.53 107.02 45.92 106.85 48.44 107.29 49.1 108.83 49.21 109.27 49.59 109.71 49.87 109.76 49.98 111.35 50.03 111.74 51.52 113.05 51.46 113.44 52.12 113.05 52.72 112.01 53.49 112.07 53.87 112.18 54.26 112.23 55.24 112.39 55.3 111.96 56.67 111.08 56.89 109.87 57.66 109.49 57.88 108.66 59.03 110.14 58.87 110.53 59.47 112.51 58.98 113.66 59.19 114.43 59.41 114.7 59.74 114.81 60.57 114.59 62.38 115.63 62.65 115.96 63.47 116.84 63.69 117.17 65.17 116.84 65.5 116.78 65.56 116.35 66.22 115.85 66.49 115.69 66.82 114.81 66.82 114.75 66.82 114.31 66.87 113.11 68.19 111.52 68.52 111.3 68.9 111.02 69.51 110.48 68.57 109.21 69.67 108.61 71.81 108.66 72.19 108.39 74.23 107.84 74.72 106.69 74.33 104.6 73.07 102.46 73.18 102.13 74.28 101.2 74.44 101.53 74.55 102.52 75.98 103.34 76.09 104.11 76.15 104.49 75.98 104.82 76.15 105.15 76.26 106.41 75.71 107.46 76.26 108.12 76.64 108.34 78.07 109.1 78.72 108.66 79 108.34 80.86 109.87 81.25 110.09 82.29 110.04 82.67 109.98 85.31 109.21 85.69 109.16 86.51 109.16 86.68 111.57 86.57 112.01 86.62 113.27 87.23 113.93 87.12 114.37 89.37 113.82 91.07 114.04 93.1 116.18 93.92 116.07 94.58 116.57 94.96 116.78 95.29 117 96.5 117.22 96.88 116.45 98.97 116.62 99.46 117.28 99.41 118.1 100.56 118.6 101.82 118.54 102.81 117.77 103.63 117.72 104.4 118.05 106.87 121.61 107.91 122.38 110.38 120.08 110.71 119.8 114.05 117.44 114.33 117.17 116.96 115.52 117.23 115.19 118.77 114.54 119.15 114.31 122.39 113.05 124.53 112.72 124.97 112.72 125.41 112.78 126.29 113.71 132.1 114.87 132.87 114.43 135.01 111.19 137.15 108.5 137.42 108.17 142.14 103.01 145.1 100.43 146.03 99.94 146.25 99.83 148.39 99.89 151.69 98.68 151.63 97.36 151.63 96.92 157.89 93.85 160.46 90.94 160.68 90.56 163.1 87.93 167.65 84.47 167.98 84.2 168.42 84.03 173.52 81.29 173.9 81.18 176.7 79.91 179.66 79.2 180.1 79.15 185.37 79.37 186.03 77.61 185.81 77.28 183.72 75.2 182.9 75.14 182.95 75.09 183.34 74.92 184.16 74.87 185.21 75.53 187.29 75.14 189.7 75.42 189.76 75.03 189.65 74.15 191.46 72.29 193.49 68.39 193.54 67.19 190.74 62.47"/>
      <path class="cls-4" d="m107.68,122.69l-1.04-.77-.09-.09-2.41-3.47-.58-.25-.61.04-.9.7-.22.08-1.26.06-.17-.03-1.15-.49-.23-.38.04-.68-.3-.41-1.66-.13-.27.54-.41.21-1.2-.22-.14-.06-.32-.21-.41-.24-.54-.4-.67.09-.33-.12-1.94-2.04-1.5-.19-2.18.53-.46-.46.06-.24-.46-.51-.1-.24-.06-1.26v-.11s.11-.38.11-.38l-.14-2h-.44l-.33.04-2.66.77-.42.06-1.04.05-.21-.05-.44-.26-1.57-1.29-.03.04-.08.07-.66.44-.39.02-1.82-.99-.1-.09-.55-.66-.04-.42.5-.95-.09-1.08-.13-.26v-.34s.11-.22.11-.22l-.12-.85-1.27-.73-.19-.29-.08-.7-.59.5-.02.06,1.17,1.99.05.12.38,2.09-.02.22-.49,1.15-.25.22-1.97.53-.33.23-.23.07-2.04-.05-.62.34.67.91-.05.51-.64.58-.67.47-1.2,1.45-.05,1.08v.48s-.02.13-.02.13l-.33.88-.16.19-.26.15-.51.38-.03.28-.32.33-.33.06-1.46.33-.4-.16-.2-.3-.8-.85-.24-.3-1.61-.93-.67.18h-.22s-.33-.12-.33-.12l-.18-.12-.22-.27-.07-.13-.22-.77.02-.25.44-1.02-.56-1.84v-.26s.09-.18.09-.18l-.54-.7-.02.08-.2.24-.6.3-.19,1.02-.17.25-1.22.78-.03.26-.44.33-1.42-.23-.34-.1-.49-.03-.48.83-.14.14-.66.39-.57-.39.03-.18-1.33-1.18-.12-.23-.06-.42-.09-1.3-.2-.12-.38-.44-.08-.16-.1-.41-.56-1.32-2.21-.38-.28.12-.43-.1-1.04-1.15-.06-.42.56-1.18.8-1.35-.24-1.06v-.18s.44-1.7.44-1.7l.08-.16,1.09-1.25.4-.12.32.09.97-.04.33-.44.05-.34-.5-.06-.19-.08-1.25-1.03-.31-.21.2-.7,1.1-.05,1.61-1.09.37-.03.21.09-.03-.37.11-.3.28-.27.37-.1.55.16,2.19-2.14v-.16l-.25-.65.42-.51,1.72.29.16-.26-.13-.16-.66-1.04-.05-.14-.27-1.65.03-.22.45-1.01-.1-1.61.5-.39.32.11-3.24-3.44-1.32-2.14-.04-.31.11-.38.05-.1,1.11-1.67-.2-.72h-.11s-.38-.18-.38-.18l-.22-.38-.37-.59.03-.45,1.04-1.25,1.57-6.06.52-.26.38.17.21.23.31.91.87.08,1.51-.52.46.17.15.26,3.04,1,.17.11,1.65,1.87.07.11.44,1.09.46.28.17-.05,2.04-1.29.26-.06,1.01.14.41-.45.29-.34.93-.93.35-.1,1.05.24,1.35-.85.2-.06h2.02l1.26-1.41.36-.12,1.66.32h.25l.71-.67.1-2.91.16-.3,1.37-.99.39-.03.49.25.88-.42.16-.28.16-.15,1.16-.57.34-.1.68-.37.23-.04,1.35.19,1.59.6.19.16.38.61.27.12.62.22,1.41-.5h.28s.68.32.68.32l.05-.7.12-.26.29-.26-.94-.82-.13-.36.2-1.09-.33-.71v-.31s.26-.62.26-.62l-.26-.61-.02-.22.17-.92.11-.38.32-.27.62-.08.51-1.06-1.15-1.29-.07-.1-.16-.38-.02-.24.08-.31-.82-1.8v-.31s.16-.38.16-.38l.11-.15.94-.77-.25-.37-.06-.21v-1.21l.07-.22.66-.93.36-.16.4.05,1.28-.11.19.03,2.41,1.1.1.07,1.19,1.08,1.79.41h0s.28-.28.28-.28l.35-.1,2.42.54,1.97-.05,1.38-.54.76-.96.15-.11.46-.19.87-.19.08-1.2-1.08-1.08-.11-.22-.16-1.21.03-.21.71-1.54.21-.2,1.01-.38.46-.96.05-.33.12-.23,1.04-.93h.49s.24.18.24.18l.6.3.68-.18h.19s2.01.47,2.01.47l1.73-.31-.04-.87.12-.3,1.21-1.1.29-.24.45.14.61-.43.41-.02.92.51.98.14.53-.4.31-.07,1.97.44.22.14,1.04,1.32.08.2.17,1.7-.02.16-.55,1.65-.29.25-.17.03.34.39.11.07.84-.62.13-.06,1.14-.3,1.78-2.26.25-.14.88-.11h.1s.24.04.24.04l.87-.58.45.02,1.26.99.28.33.09.27-.16,2.46.37.57,1.73.77,1.01-.38.42.1,1.1,1.2.05.02.09-.11.19-.12,1.2-.33-1.81-1.24-.15-.41.23-.87.33-.82.1-.14,1.49-1.33.09-.63.07-.17,1.91-2.68.38-.16,1.26.22.32.37v.2s.32-.29.32-.29l1.59.17.27.07.3-.21.42-1.36-.19-.66.04-.3.6-1.04.36-.09-.28-.92.15-.43,1.32-.88.13-.06,1.48-.31,1.13-1.13.3-.11,5.05.44.35.38v1.49l.61,1.14,1.96-.05.3.14.27.33.08.15.49,1.98-.03.27-.37.69-.31.83-1.75,2.47.42,1.18,1.31.49.15.1.57.63h0s.23-.09.23-.09l1.08-.05,1.11-.91.21-.08,3.28-.26,1.17-1.01.54.04.55.66.07.35-.1.34-.05,1.18.41.95.83.47.29.08h1.81l.36.5-.09.26.03.42,1.59.14.27.61-.41.55.05,1.13-.09.26-1.03,1.23-.12.94.07.04.8.31.23-.13,1.46-.87.54-.38.41-.02,2.47,1.37.13.12.19.29,1.93,1.66.13.34-.11.85v.19l.44.14.18.12.59.74,1.22-.32.31.05.66.44.16.21.4,1.4.16.11.32.09.21.15.83,1.22.49.03.9-.4.36.03.93.6.16.22.11.38.58,1.75.18.27.75.86.09.19.22,1.54v.45s-.04.19-.04.19l2.73,4.6.05.21-.06,1.21-.04.16-2.03,3.89-.06.09-1.68,1.73.09.7v.1s-.06.38-.06.38l-.42.33-2.36-.27-2.02.37-.27-.05-.23-.15,1.35,1.37.22.33.04.35-.66,1.75-.37.25-5.23-.22-.39.05-2.91.7-2.82,1.27-.34.1-5.11,2.75-.38.14-.28.23-4.54,3.45-2.36,2.58-.25.41-2.58,2.91-.12.09-6.04,2.97v.2l.05,1.3-.25.37-3.29,1.21-.14.02-2.04-.05-.14.07-.88.47-2.91,2.54-4.7,5.14-.26.32-2.12,2.67-2.13,3.22-.13.12-.77.44-.27.04-5.81-1.16-.2-.11-.78-.83-.28-.04h-.39l-2.07.32-3.17,1.24-.4.23-1.45.62-.22.26-.09.08-2.59,1.62-.29.29-3.33,2.35-.32.26-2.45,2.29-.49.03Zm-.54-1.35l.73.54,2.24-2.09.37-.31,3.32-2.34.32-.31,2.58-1.61.24-.28.14-.11,1.51-.65.42-.24,3.32-1.28,2.2-.33h.49s.44.06.44.06l.23.12.79.84,5.55,1.1.56-.32,2.11-3.19,2.42-3.02,4.76-5.2,3.04-2.63,1.16-.61.18-.04,2.07.05,2.96-1.09-.04-1.04v-.46s.21-.34.21-.34l6.18-3.04,2.5-2.82.25-.42,2.46-2.68,4.55-3.46.31-.26.11-.06.42-.16,5.16-2.76.36-.1,2.84-1.27,3-.72.5-.06,4.99.21.49-1.31-.09-.13-1.96-1.96-.68-.04-.25-.65.05-.06.12-.08.38-.16.12-.03.82-.05.23.06.92.58,1.93-.36h.11s2.04.23,2.04.23l-.1-.79.1-.31,1.77-1.83,1.96-3.77.05-1.01-2.74-4.62-.05-.26.05-.3v-.32l-.2-1.34-.72-.83-.27-.42-.68-2.07-.64-.41-.8.36-.18.03-.77-.06-.29-.17-.85-1.25-.25-.07-.11-.05-.33-.22-.15-.21-.4-1.4-.4-.27-1.31.34-.41-.16-.21-.31-.41-.5-.6-.19-.27-.37v-.54s.09-.67.09-.67l-.17-.14-1.72-1.51-.17-.25-2.18-1.21-.38.26-1.87,1.1-.33.02-1.02-.4-.33-.16-.21-.39.17-1.32.09-.2,1-1.2-.05-1.12.08-.25.08-.11-1.23-.1-.35-.36-.05-.8h-1.48s-.47-.16-.47-.16l-.99-.55-.16-.18-.49-1.15-.03-.17.07-1.4.05-.19-.17-.2-.97.84-.22.09-3.28.27-1.12.91-.22.09-1.08.05-.23.19-.56-.08-.2-.31-.47-.51-1.39-.52-.23-.23-.55-1.54.05-.35,1.83-2.59.28-.77.31-.58-.44-1.75-.1-.12-2.01.05-.35-.2-.77-1.43-.05-.18v-1.24l-4.52-.4-1.08,1.08-.19.1-1.52.32-1.02.68.35,1.15-.29.49-.27.06-.2-.03-.34.59.17.61v.22s-.5,1.59-.5,1.59l-.15.2-.55.38-.31.06-.41-.1-1.07-.11.04.82-.17.34-.66.44-.59-.31-.05-1.66-.71-.12-.08.12-1.65,2.3-.1.67-.12.23-1.52,1.37-.29.72-.14.54,1.86,1.27.17.32v.38l-.28.37-1.48.41-.2.24-.45.11-.38-.17-.13-.09-.98-1.07-.91.35h-.29s-1.97-.89-1.97-.89l-.17-.14-.5-.77-.06-.23.16-2.43-.15-.18-.96-.74-.76.51-.27.06-.33-.05-.67.08-1.77,2.24-.2.13-1.19.31-.98.73-.42.02-.38-.22-.1-.08-.82-.93.21-.63.6-.12.45-1.36-.15-1.51-.89-1.12-1.67-.37-.52.39-.28.07-1.21-.17-.13-.04-.78-.43-.74.52-.41-.14-1.02.93.05,1.03-.31.39-2.14.38h-.16s-1.99-.48-1.99-.48l-.73.2-.27-.03-.86-.44-.7.62-.03.25-.03.11-.55,1.15-.21.19-1.01.38-.6,1.29.13.97,1.11,1.12.11.3-.11,1.65-.28.34-.38.11-.76.16-.26.11-.76.97-.16.12-1.53.61-.13.03-2.09.05h-.09s-2.26-.51-2.26-.51l-.1.1-.09.13-.4.16-2.14-.49-.17-.09-1.22-1.11-2.27-1.03-1.22.1h-.08s-.21-.03-.21-.03l-.46.65v.97l.37.56-.08.51-1.14.93-.06.14.81,1.77.02.25-.08.31.09.21,1.27,1.44.06.42-.71,1.48-.29.21-.57.08-.04.13-.14.75.28.66v.3s-.26.61-.26.61l.31.67.03.23-.18.99,1.1.96v.57s-.48.45-.48.45l-.06.75-.11.38-.52.24-.96-.43-1.39.5h-.26l-.77-.27-.4-.17-.17-.15-.37-.6-1.43-.54-1.09-.14-.68.36-.35.1-.96.48-.16.28-.17.16-1.15.55h-.34s-.45-.23-.45-.23l-1.03.74-.1,2.88-.12.26-.93.88-.26.1h-.51s-1.49-.29-1.49-.29l-1.23,1.37-.28.13h-2.08l-1.39.87-.29.05-1-.23-.77.77-.26.32-.56.62-.33.12-1.07-.15-1.97,1.24-.1.04-.38.11-.31-.04-.71-.44-.15-.18-.47-1.15-1.53-1.74-3.08-1.01-.21-.17-.06-.11-1.29.45-.16.02-1.21-.11-.33-.26-.22-.65-1.41,5.45-.08.15-.92,1.1.33.55.19-.02.42.28.33,1.21-.05.31-1.17,1.76-.05.16,1.21,1.96,3.8,4.03.22.33-.37.59-.46-.07-.61-.21.07,1.13-.03.18-.44.99.24,1.46.6.95.26.31.03.44-.44.71-.39.18-1.32-.22.04.09.03.14v.38l-.11.27-.33.33-2.14,2.09-.37.09-.54-.16.04.58-.33.41-.38.05-.21-.03-.19-.08-1.53,1.04-.2.07h-.15s.68.57.68.57l.77.1.33.43-.11.82-.07.18-.49.66-.29.15-1.21.06h-.12s-.15-.05-.15-.05l-.12.14-.77.87-.39,1.52.25,1.12-.04.28-.87,1.47-.43.9.69.76.13-.06.22-.03,2.52.44.29.23.68,1.59.09.35.24.27.15.03.31.35.11,1.58.03.23,1.38,1.22v.04s.07-.03.07-.03l.55-.95.36-.19.85.07.36.1.96.15v-.04s.18-.27.18-.27l1.23-.79.19-1.05.21-.27.61-.31.18-.66.67-.14,1.15,1.48.05.38-.11.26.56,1.84v.26s-.45,1.03-.45,1.03l.16.56.1.13.11.04.71-.19.29.04,1.81,1.04.1.09.27.33.85.91.07.11,1.29-.28.02-.16.15-.26.69-.51.16-.1.26-.69v-.43l.06-1.22.09-.23,1.32-1.59.08-.07.68-.47.33-.3-.73-.99.12-.56,1.1-.6.19-.05,2.01.05.28-.2.12-.06,1.85-.5.37-.88-.35-1.91-1.23-2.08-.03-.32.11-.33.12-.17,1.1-.93.59.12.17.33.04.13.09.79,1.26.73.19.28.17,1.15-.04.22-.08.16.08.16.04.14.11,1.26-.04.21-.43.82.34.41.32.19,1.22.65.42-.28.24-.29.54-.05,1.84,1.52.26.15.91-.05.34-.05,2.66-.77.44-.05h.82l.38.36.16,2.41v.12s-.11.38-.11.38l.05,1.07.51.55.05.2,1.72-.42h.14s1.7.21,1.7.21l.23.12,1.89,2,.63-.08.28.07.64.48.39.22.26.18.84.15.26-.51.37-.21,2.09.17.28.15.49.66.08.25-.04.55.82.35,1.05-.05.89-.69.21-.08.82-.06.18.03.77.33.16.13,2.43,3.51Z"/>
      <path class="cls-5" d="m55.25,58.91s.07-.23.2-.67c.14-.44.33-1.07.65-1.86.15-.4.32-.84.53-1.31.2-.47.44-.97.69-1.51.26-.53.56-1.09.86-1.68.33-.58.68-1.19,1.05-1.82.78-1.24,1.65-2.57,2.69-3.9,1.02-1.34,2.19-2.69,3.47-4.02,1.28-1.33,2.7-2.61,4.2-3.84,1.5-1.24,3.12-2.37,4.78-3.43,1.66-1.07,3.41-2,5.16-2.84,1.75-.85,3.54-1.53,5.28-2.13.88-.28,1.74-.56,2.6-.78.85-.25,1.7-.43,2.52-.61.41-.09.82-.16,1.22-.23.4-.07.8-.15,1.19-.21.39-.05.78-.1,1.16-.15.38-.05.74-.11,1.11-.13,1.46-.14,2.8-.2,3.98-.2.6.01,1.15.01,1.66.03.51.03.98.05,1.41.09.21.02.41.04.6.05.19.02.36.04.53.06.33.04.61.08.83.11.45.07.69.11.69.11,0,0-.23.08-.66.22-.43.15-1.07.31-1.86.58-.4.13-.84.26-1.31.41-.47.16-.99.32-1.53.5-1.09.36-2.3.77-3.61,1.24-.65.23-1.33.49-2.02.75-.69.28-1.41.54-2.13.85-.72.31-1.47.61-2.22.95-.37.17-.76.32-1.14.5-.38.18-.76.36-1.15.53-1.53.74-3.1,1.51-4.65,2.37-1.55.86-3.12,1.75-4.63,2.72-1.52.97-3.02,1.96-4.46,3.01-1.43,1.05-2.84,2.09-4.14,3.18-.67.53-1.3,1.08-1.93,1.61-.61.54-1.23,1.06-1.81,1.59-.29.27-.59.52-.86.78-.28.26-.55.53-.82.78-.56.5-1.05,1.02-1.56,1.49-.5.49-.97.96-1.42,1.41-.44.46-.86.9-1.26,1.3-.39.41-.76.81-1.11,1.17-.35.36-.64.7-.93,1-.58.6-1.01,1.11-1.33,1.43-.31.33-.48.5-.48.5Z"/>
      <polygon class="cls-8" points="142.88 63.7 139.09 90.84 128.33 90.84 132.12 63.7 110.74 63.7 100.92 133.62 122.3 133.62 124.72 116.73 135.48 116.73 133.07 133.62 154.45 133.62 164.26 63.7 142.88 63.7"/>
      <polygon class="cls-1" points="151.63 96.92 151.63 97.36 151.69 98.68 148.39 99.89 146.25 99.83 146.03 99.94 145.1 100.43 142.14 103.01 137.42 108.17 137.15 108.5 135.01 111.19 132.87 114.43 132.1 114.87 126.29 113.71 125.41 112.78 124.97 112.72 124.53 112.72 122.39 113.05 119.15 114.31 118.77 114.54 117.23 115.19 116.96 115.52 114.33 117.17 114.05 117.44 110.71 119.8 110.38 120.08 107.91 122.38 106.87 121.61 104.4 118.05 103.63 117.72 103.15 117.75 100.92 133.62 122.3 133.62 124.72 116.73 135.48 116.73 133.07 133.62 154.45 133.62 160.43 90.98 157.89 93.85 151.63 96.92"/>
      <g>
        <path class="cls-6" d="m137.59,133.62h16.86l1.65-11.78c-3.58,3.22-6.68,4.78-9.72,6.31-2.75,1.38-5.56,2.8-8.79,5.47Z"/>
        <path class="cls-6" d="m143.02,117.14c-3.24,1.98-5.88,3.23-8.18,4.08l-1.77,12.41h2.25c3.91-3.53,7.2-5.19,10.4-6.8,3.45-1.74,6.75-3.4,10.72-7.33l2.1-14.98c-3.48,4.31-7.62,7.81-15.52,12.63Z"/>
        <path class="cls-6" d="m158.95,101.51l5.31-37.81h-21.38l-3.79,27.14h-10.76l3.79-27.14h-21.38l-9.81,69.92h2.48c2.12-1.81,4.74-3.76,8.34-5.96,5.28-3.22,8.96-4.51,12.17-5.29l.81-5.64h10.76l-.4,2.8c2.04-.81,4.35-1.95,7.16-3.67,8.97-5.48,12.9-9.07,16.71-14.36Z"/>
        <path class="cls-6" d="m105.74,133.62h16.56l1.38-9.66c-2.99.77-6.35,2.03-11.16,4.97-2.8,1.71-4.97,3.24-6.78,4.69Z"/>
        <g>
          <polygon class="cls-6" points="104.89 117.45 107.41 121.09 107.85 121.41 109.87 119.53 110.28 119.19 113.57 116.87 113.93 116.54 116.46 114.95 116.78 114.58 118.44 113.87 118.88 113.62 122.28 112.31 124.53 111.98 125.07 111.98 125.77 112.07 126.67 113.03 131.97 114.08 132.34 113.87 134.43 110.73 136.85 107.69 141.65 102.45 144.76 99.77 146.09 99.08 148.27 99.14 150.92 98.17 150.89 96.46 157.42 93.25 159.85 90.51 160.13 90.06 160.64 89.5 164.26 63.7 142.88 63.7 139.09 90.84 128.33 90.84 132.12 63.7 110.74 63.7 103.26 116.99 103.76 116.96 104.89 117.45"/>
          <path class="cls-6" d="m143.02,117.14c-3.24,1.98-5.88,3.23-8.18,4.08l-1.77,12.41h2.25c3.91-3.53,7.2-5.19,10.4-6.8,3.45-1.74,6.75-3.4,10.72-7.33l2.1-14.98c-3.48,4.31-7.62,7.81-15.52,12.63Z"/>
          <path class="cls-6" d="m152.38,97.39l.07,1.8-3.94,1.44-2.1-.05-.06.03-.84.44-2.87,2.5-4.94,5.43-2.11,2.65-2.22,3.36-1.16.67-6.32-1.26-.86-.91-.13-.02h-.33l-2,.31-3.11,1.21-.41.23-1.37.59-.24.28-2.66,1.66-.31.3-3.32,2.34-.31.25-2.89,2.7-1.64-1.21-2.42-3.49-.4-.17-.46.03-2.12,15.12h2.48c2.12-1.81,4.74-3.76,8.34-5.96,5.28-3.22,8.96-4.51,12.17-5.29l.81-5.64h10.76l-.4,2.8c2.04-.81,4.35-1.95,7.16-3.67,8.97-5.48,12.9-9.07,16.71-14.36l1.29-9.19-1.9,2.14-5.97,2.93Z"/>
          <path class="cls-6" d="m105.74,133.62h16.56l1.38-9.66c-2.99.77-6.35,2.03-11.16,4.97-2.8,1.71-4.97,3.24-6.78,4.69Z"/>
          <path class="cls-6" d="m137.59,133.62h16.86l1.65-11.78c-3.58,3.22-6.68,4.78-9.72,6.31-2.75,1.38-5.56,2.8-8.79,5.47Z"/>
          <path class="cls-2" d="m141.28,61.86l-3.79,27.14h-7.06l3.79-27.14h-25.09l-10.33,73.59h25.08l1.71-11.94.22-1.57.48-3.38h7.05l-.24,1.67-.23,1.63-1.94,13.58h25.09l2.2-15.69.36-2.6,2.2-15.71.47-3.38,5.08-36.21h-25.09Zm-30.55,1.84h21.38l-3.79,27.14h10.76l3.79-27.14h21.38l-3.62,25.81-.51.55-.28.45-2.43,2.74-6.54,3.21.03,1.71-2.65.97-2.18-.06-1.33.69-3.1,2.68-4.8,5.24-2.42,3.03-2.08,3.14-.37.21-5.31-1.06-.9-.95-.7-.09h-.53s-2.25.33-2.25.33l-3.4,1.3-.45.25-1.66.71-.31.38-2.53,1.58-.36.34-3.29,2.32-.41.34-2.02,1.88-.44-.33-2.52-3.64-1.13-.48-.5.03,7.48-53.3Zm11.57,69.92h-16.56c1.81-1.44,3.98-2.97,6.78-4.69,4.81-2.94,8.17-4.2,11.16-4.97l-1.38,9.66Zm32.14,0h-16.86c3.23-2.67,6.04-4.09,8.79-5.47,3.04-1.53,6.14-3.09,9.72-6.31l-1.65,11.78Zm1.98-14.13c-3.97,3.93-7.27,5.59-10.72,7.33-3.2,1.61-6.49,3.27-10.4,6.8h-2.25l1.77-12.41c2.3-.85,4.94-2.1,8.18-4.08,7.89-4.82,12.04-8.32,15.52-12.63l-2.1,14.98Zm2.52-17.98c-3.81,5.28-7.74,8.88-16.71,14.36-2.81,1.72-5.13,2.86-7.16,3.67l.4-2.8h-10.76l-.81,5.64c-3.21.78-6.89,2.07-12.17,5.29-3.6,2.2-6.22,4.15-8.34,5.96h-2.48l2.12-15.12.46-.03.4.17,2.42,3.49,1.64,1.21,2.89-2.7.31-.25,3.32-2.34.31-.3,2.66-1.66.24-.28,1.37-.59.41-.23,3.11-1.21,2-.31h.33l.13.02.86.91,6.32,1.26,1.16-.67,2.22-3.36,2.11-2.65,4.94-5.43,2.87-2.5.84-.44.06-.03,2.1.05,3.94-1.44-.07-1.8,5.97-2.93,1.9-2.14-1.29,9.19Z"/>
        </g>
      </g>
      <path class="cls-4" d="m98.16,104.4c-10.15,0-18.38-8.23-18.38-18.38s8.23-18.38,18.38-18.38,18.38,8.23,18.38,18.38-8.23,18.38-18.38,18.38Z"/>
    </g>
  </g>
  <rect class="cls-6" x="222.88" y="3.4" width="11.22" height="11.22"/>
  <rect class="cls-6" x="3.97" y="3.4" width="11.22" height="11.22"/>
</svg>